<svg width="97" height="120" viewBox="0 0 97 120" fill="none" xmlns="http://www.w3.org/2000/svg">
<path d="M17.6972 10.6788L21.2747 9.03833L33.6893 32.5714L27.4286 35.4422L17.6972 10.6788Z" fill="#F3C74D"/>
<circle cx="18.2556" cy="7.17518" r="5.41158" transform="rotate(-24.6336 18.2556 7.17518)" fill="#F3C74D"/>
<path d="M72.811 11.1241L69.3491 9.25196L55.4138 31.9177L61.4722 35.194L72.811 11.1241Z" fill="#F3C74D"/>
<circle cx="5.41158" cy="5.41158" r="5.41158" transform="matrix(-0.879615 -0.475686 -0.475686 0.879615 79.8185 5.40527)" fill="#F3C74D"/>
<path fill-rule="evenodd" clip-rule="evenodd" d="M65.5635 26.5149L60.72 36.7903C60.3737 37.5248 60.6885 38.4009 61.423 38.7472C62.1575 39.0934 63.0337 38.7786 63.3799 38.0441L68.1439 27.9374L88.89 39.3739C93.1102 41.7003 93.1102 47.7654 88.89 50.0918L57.6044 67.3383C51.7196 70.5824 44.5824 70.5824 38.6976 67.3383L7.41194 50.0918C3.19179 47.7654 3.19179 41.7003 7.41195 39.3739L30.5527 26.6173L36.3224 37.5467C36.7029 38.2674 37.5956 38.5432 38.3163 38.1628C39.037 37.7823 39.3128 36.8896 38.9323 36.1689L33.1377 25.1923L38.6976 22.1274C44.5824 18.8833 51.7196 18.8833 57.6044 22.1274L65.5635 26.5149ZM68.6188 44.5978C69.9487 43.4345 72.014 44.5935 70.9287 45.9879C65.4504 53.0262 56.898 57.5538 47.2881 57.5538C37.678 57.5538 29.1254 53.0261 23.6472 45.9875C22.5619 44.5931 24.6271 43.4341 25.9571 44.5974C31.6574 49.5834 39.1199 52.6047 47.2881 52.6047C55.4561 52.6047 62.9185 49.5835 68.6188 44.5978Z" fill="#F3C74D"/>
<path d="M0 60.0359C0 56.4492 3.83909 54.1702 6.98783 55.8877L39.3235 73.5253C43.1185 75.5954 45.4798 79.573 45.4798 83.8958V112.041C45.4798 115.627 41.6407 117.906 38.4919 116.189L6.15628 98.5513C2.36125 96.4813 0 92.5037 0 88.1808V60.0359Z" fill="#5FC8DF"/>
<path d="M96.866 60.0359C96.866 56.4492 93.0269 54.1702 89.8781 55.8877L57.5425 73.5253C53.7475 75.5954 51.3862 79.573 51.3862 83.8959V112.041C51.3862 115.627 55.2253 117.906 58.374 116.189L90.7097 98.5513C94.5047 96.4813 96.866 92.5037 96.866 88.1808V60.0359Z" fill="#EA447A"/>
</svg>
