<svg width="252" height="202" viewBox="0 0 252 202" fill="none" xmlns="http://www.w3.org/2000/svg">
<path d="M183.611 10.2816C181.156 3.7279 178.595 -3.1099 161.257 1.51507C151.946 3.99851 144.142 12.7727 137.762 25.8027C132.962 36.1654 128.907 49.5657 125.671 65.6324C119.061 98.4627 116.276 140.931 117.577 182.221L114.692 182.312L114.654 181.067C113.774 151.251 115.01 120.879 118.271 93.9507C104.396 79.5291 88.5801 68.1623 77.0551 64.3868C49.7442 58.3648 42.5291 74.2747 42.708 88.467C42.7408 91.0621 43.6477 93.2206 44.5613 95.395C45.506 97.6433 46.4578 99.9087 46.4578 102.692C46.4578 104.537 42.3303 108.35 36.9649 113.306C26.4168 123.049 11.0842 137.212 12.9244 149.537C14.6251 160.927 25.41 169.576 35.337 174.225C36.3089 174.68 37.3674 175.526 38.6411 176.544C39.5469 177.268 40.5615 178.078 41.7311 178.897L41.821 178.96C42.7398 179.593 44.2562 180.485 46.3702 181.638L47.0223 181.992C76.9292 198.126 111.638 187.256 122.454 183.244L123.086 183.008L199.785 182.154L199.775 182.094C199.754 181.969 199.72 181.783 199.676 181.543C198.955 177.636 195.569 159.283 202.779 151.886C225.297 128.788 249.988 62.6864 216.417 34.9868C208.998 28.8655 201.636 25.1443 195.983 22.2864C192.549 20.5506 189.745 19.1333 187.941 17.6902C185.72 15.913 184.675 13.124 183.611 10.2816Z" fill="#D4D7E0"/>
<path fill-rule="evenodd" clip-rule="evenodd" d="M47.7802 84.2668C46.09 83.9731 49.0772 87.325 49.0772 87.325C49.0772 87.325 49.4705 84.5606 47.7802 84.2668Z" fill="white"/>
<path fill-rule="evenodd" clip-rule="evenodd" d="M73.0619 182.412C73.0619 182.412 54.9062 174.816 54.9062 164.24C54.9062 161.137 56.847 161.435 60.7285 165.134C61.1507 165.536 61.7554 166.154 62.5428 166.986C63.0251 167.497 52.1288 154.265 57.6193 151.79C62.9713 149.378 64.2162 161.903 64.4959 161.73C64.8069 161.538 64.716 157.748 65.9547 156.072C66.622 155.17 68.5844 154.977 70.0692 156.072C77.8698 161.828 73.0619 182.412 73.0619 182.412Z" fill="white"/>
<path fill-rule="evenodd" clip-rule="evenodd" d="M65.2581 104.827C65.2581 104.827 57.7059 104.439 56.6765 102.038C55.647 99.6367 61.2474 101.001 61.2474 101.001L65.2581 104.827Z" fill="white"/>
<path fill-rule="evenodd" clip-rule="evenodd" d="M52.4858 93.4423C50.795 92.4961 51.7566 90.2403 52.4858 90.1464C54.6444 89.8685 56.3477 94.652 56.5857 95.1309C56.9977 95.9604 53.3437 93.9223 52.4858 93.4423Z" fill="white"/>
<path fill-rule="evenodd" clip-rule="evenodd" d="M69.8723 107.942C69.8723 107.942 65.7373 97.3999 69.5653 98.2306C73.3932 99.0613 72.292 111.317 72.292 111.317L69.8723 107.942Z" fill="white"/>
<path fill-rule="evenodd" clip-rule="evenodd" d="M67.0953 100.263C67.1493 101.973 67.8799 104.596 69.2828 108.173C69.302 108.222 69.3271 108.268 69.3576 108.311L71.7773 111.685C72.1188 112.162 72.8684 111.957 72.9208 111.373L72.9645 110.869C73.6447 102.697 72.6628 98.2562 69.6985 97.6129C67.9739 97.2387 67.0322 98.2701 67.0953 100.263ZM69.4943 98.8633C71.3359 99.3356 72.1922 102.753 71.8179 109.167L71.7945 109.539L70.4308 107.637L70.1923 107.018C69.014 103.922 68.4041 101.646 68.3591 100.223L68.3556 100.024C68.353 98.9459 68.649 98.6786 69.4303 98.8482L69.4943 98.8633Z" fill="#00160A"/>
<path fill-rule="evenodd" clip-rule="evenodd" d="M55.2691 151.15C52.6055 152.351 52.7899 155.38 54.8233 159.507L54.9794 159.819C55.3513 160.55 55.7757 161.306 56.2452 162.08L56.4069 162.345L56.3868 162.331C55.6264 161.825 54.9704 161.529 54.406 161.443C52.9072 161.213 52.1431 162.317 52.1431 164.239C52.1431 171.641 58.3935 177.897 70.7292 183.058C71.1293 183.225 71.5838 182.993 71.6824 182.571C74.9451 168.602 73.918 159.562 68.4233 155.508C66.7374 154.264 64.3001 154.341 63.3289 155.655L63.2446 155.774C62.8318 156.381 62.5437 157.18 62.3301 158.173L62.3207 158.217L62.2932 158.108C62.1413 157.513 61.9808 156.952 61.7991 156.39C61.197 154.528 60.4769 153.065 59.5737 152.086C58.3848 150.797 56.9067 150.412 55.2691 151.15ZM61.3035 160.032L61.6113 161.484L61.647 161.635C61.6697 161.726 61.6903 161.799 61.7112 161.862C61.7393 161.945 61.7687 162.015 61.8152 162.088C61.8731 162.18 61.9449 162.26 62.0591 162.329C62.2816 162.463 62.5672 162.471 62.8027 162.325C63.1058 162.138 63.1799 161.977 63.2629 161.447L63.3016 161.182C63.3291 160.987 63.4293 160.154 63.4462 160.022C63.5136 159.496 63.5808 159.062 63.6635 158.649C63.8576 157.679 64.1188 156.945 64.4566 156.488C64.9187 155.863 66.4772 155.814 67.5912 156.636L67.7372 156.746C72.3714 160.315 73.3747 168.4 70.5897 181.052L70.5036 181.439L70.2185 181.315C59.0529 176.445 53.5455 170.738 53.5455 164.239C53.5455 163.059 53.7517 162.761 54.1936 162.828C54.9759 162.948 56.3425 163.887 58.1831 165.64L58.4183 165.868C58.6989 166.144 59.0435 166.495 59.4515 166.921L59.995 167.491C60.0043 167.5 60.0183 167.513 60.0462 167.538L60.0551 167.559C60.0766 167.594 60.1456 167.607 60.6052 167.692L60.7654 167.636C60.9549 167.564 60.985 167.517 61.1461 167.263L61.1828 167.11C61.2051 167.009 61.2019 166.985 61.1901 166.897L61.1595 166.773C61.1528 166.749 61.1477 166.736 61.1392 166.718L61.1321 166.703C61.1133 166.663 61.1025 166.642 61.0846 166.615L60.8939 166.358L60.4082 165.715C60.3247 165.603 60.2406 165.49 60.1475 165.363C59.3484 164.279 58.5734 163.158 57.8451 162.002C57.1629 160.919 56.5675 159.874 56.0812 158.887C54.3657 155.405 54.2288 153.157 55.8456 152.428C57.7914 151.551 59.2852 153.17 60.4654 156.821C60.7862 157.814 61.0401 158.813 61.3035 160.032Z" fill="#00160A"/>
<path fill-rule="evenodd" clip-rule="evenodd" d="M57.4438 95.5186L58.0197 96.0429C65.1603 102.561 70.1319 107.762 72.7821 111.371C77.4076 117.67 81.1354 124.204 84.2768 131.123C85.3932 133.582 86.4039 136.016 87.3998 138.601L87.6712 139.31C87.9816 140.126 88.2818 140.932 88.6089 141.826L90.0028 145.672C93.7731 155.994 92.5251 156.498 88.9358 146.457L87.5258 142.563C87.2306 141.754 86.9601 141.023 86.6883 140.302L86.4837 139.761C85.4082 136.934 84.3261 134.304 83.12 131.648C80.0132 124.806 76.3285 118.347 71.758 112.123L71.5485 111.841C68.8335 108.225 63.7925 102.999 56.5898 96.4592C56.33 96.2233 56.3106 95.8216 56.5465 95.5619C56.7823 95.3021 57.184 95.2828 57.4438 95.5186ZM40.73 81.1204L49.6225 88.7108C50.4561 89.4259 51.1058 89.9861 51.4159 90.2595C51.6791 90.4914 51.7044 90.8929 51.4724 91.156C51.2404 91.4192 50.839 91.4445 50.5758 91.2126L48.2616 89.2175C45.1884 86.5849 40.3365 82.456 39.9038 82.0856C39.6373 81.8574 39.6062 81.4564 39.8343 81.1899C40.0625 80.9234 40.4635 80.8923 40.73 81.1204Z" fill="#00160A"/>
<path fill-rule="evenodd" clip-rule="evenodd" d="M57.1647 99.9608C55.9972 100.226 55.6039 101.14 56.0954 102.286C56.9154 104.199 59.9554 105.187 65.2258 105.458C65.8114 105.488 66.1189 104.774 65.6946 104.369L61.6838 100.543C61.6036 100.467 61.5048 100.413 61.3971 100.386C59.441 99.9096 58.049 99.7602 57.1647 99.9608ZM60.9337 101.575L63.5489 104.069L63.3917 104.054L62.9968 104.012C59.63 103.635 57.715 102.854 57.2577 101.788L57.2101 101.673C57.0702 101.322 57.1207 101.267 57.4444 101.194C58.0411 101.058 59.1581 101.165 60.7496 101.532L60.9337 101.575Z" fill="#00160A"/>
<path fill-rule="evenodd" clip-rule="evenodd" d="M53.4525 186.123C51.8603 187.04 52.5089 187.995 55.9425 189.519C59.6474 191.184 66.5427 194.401 78.3862 195.307C96.7303 196.71 113.432 194.062 134.517 194.062C163.708 194.062 176.521 200.476 186.738 198.997C214.126 195.032 220.33 187.336 212.16 185.35C203.189 183.17 174.678 183.437 165.08 182.81L162.11 182.619L159.558 182.555C131.933 181.877 87.6508 182.555 79.0026 182.555C61.3597 182.555 53.4525 186.123 53.4525 186.123Z" fill="white"/>
<path fill-rule="evenodd" clip-rule="evenodd" d="M134.517 194.063C163.707 194.063 176.52 200.698 186.737 199.219C214.125 195.254 220.329 187.337 212.159 185.351C203.188 183.171 170.603 182.463 162.579 182.636C162.579 182.636 199.466 189.453 197.493 191.71C191.615 198.431 176.981 190.309 150.401 190.546C144.925 190.595 134.517 194.063 134.517 194.063Z" fill="#E7EAEE"/>
<path fill-rule="evenodd" clip-rule="evenodd" d="M80.7529 182.844C80.0421 182.848 79.4716 182.85 79.0019 182.85L78.1967 182.852C66.7269 182.905 58.3611 184.111 53.0639 186.501L52.9812 186.544C51.7439 187.256 51.2698 188.306 52.0474 189.383C52.5501 190.08 53.6027 190.738 55.3792 191.538L56.8895 192.213C58.7739 193.048 59.8915 193.5 61.5696 194.09L61.7515 194.154C66.5919 195.845 71.963 196.999 78.3136 197.485C82.8261 197.83 87.4247 197.949 92.4655 197.879L94.2302 197.848C97.5446 197.78 100.368 197.663 105.526 197.386L114.443 196.892C122.939 196.433 128.123 196.249 134.242 196.243L134.517 196.243C145.469 196.243 154.416 197.077 164.339 198.702L165.201 198.845C166.696 199.105 174.92 200.554 177.191 200.88L177.269 200.891C181.232 201.449 184.163 201.561 186.872 201.168L187.63 201.057C199.932 199.219 208.821 196.48 213.31 193.451C217.795 190.424 217.389 186.957 212.53 185.709L212.382 185.672C208.347 184.691 200.687 184.146 188.785 183.79L186.344 183.721C185.633 183.701 184.898 183.683 184.125 183.663L173.764 183.424C169.773 183.325 167.327 183.24 165.475 183.127L162.17 182.916L159.581 182.85L156.951 182.791C149.321 182.632 140.209 182.555 129.779 182.549L126.678 182.549C119.409 182.553 111.886 182.589 103.487 182.652L80.7529 182.844ZM132.205 184.437C142.615 184.455 151.642 184.546 159.106 184.725L162.086 184.799L165.474 185.016C167.339 185.128 169.78 185.212 173.709 185.309L183.689 185.539C184.866 185.568 185.953 185.596 186.996 185.625L189.44 185.696C200.786 186.049 208.16 186.586 211.937 187.504L212.163 187.561C215.295 188.383 215.397 189.766 212.255 191.886C207.959 194.786 190.32 202.554 177.856 199.906L177.282 199.825C174.648 199.433 165.818 197.453 165.298 197.366L164.019 197.157C154.461 195.618 145.737 194.811 135.221 194.776L133.692 194.776C127.403 194.793 121.987 195.003 112.784 195.512L106.398 195.868C100.221 196.205 97.276 196.325 93.4331 196.395L93.1236 196.4C73.6344 197.157 61.7519 192.617 61.7519 192.617C60.1967 192.061 56.1725 190.664 56.1725 190.664L55.873 190.527C46.4843 187.339 66.9826 184.79 78.2137 184.737L81.7147 184.724L102.053 184.549C111.522 184.475 119.858 184.435 127.922 184.434L132.205 184.437Z" fill="#00160A"/>
<path fill-rule="evenodd" clip-rule="evenodd" d="M175.516 169.229C175.516 169.229 175.466 172.026 176.327 173.32C177.188 174.614 179.588 178.213 181.821 179.16C182.509 179.452 185.134 179.489 186.712 180.411C189.881 182.262 190.587 185.598 186.712 186.305C179.019 187.707 176.327 183.652 176.327 183.652C176.327 183.652 173.158 179.16 169.982 176.181C166.805 173.202 164.275 172.305 164.275 172.305" fill="white"/>
<path d="M202.064 46.2877C200.994 46.2073 200.364 47.0213 200.364 48.0067C200.364 51.4177 205.937 56.0824 209.568 56.0824C210.633 56.0824 211.504 55.3211 211.194 54.1573C211.078 53.7187 210.81 53.3296 210.37 52.8499L210.273 52.7457C209.779 52.2207 209.267 51.7519 208.121 50.7655L206.365 49.2607C205.935 48.8879 205.25 48.2932 205.042 48.1162L204.793 47.9045C204.313 47.4998 203.942 47.2051 203.611 46.9709C203.025 46.5569 202.571 46.3258 202.064 46.2877Z" fill="white"/>
<path fill-rule="evenodd" clip-rule="evenodd" d="M166.464 113.167C166.464 113.167 164.354 107.145 158.931 105.514C157.208 104.996 164.746 116.371 158.093 120.614C156.016 121.939 152.324 122.626 147.781 123.273C127.528 126.156 121.421 118.599 108.919 114.908C103.906 113.428 79.522 106.882 75.8353 140.228C73.5276 161.1 91.0062 167.569 106.67 170.885C138.05 177.529 186.133 174.911 201.129 153.013C219.004 126.91 191.531 104.179 187.66 101.776C186.722 101.194 189.41 108.654 189.709 112.427C190.008 116.2 187.66 117.572 187.66 117.572C187.66 117.572 186.734 113.577 178.553 112.892C170.372 112.207 166.464 113.167 166.464 113.167Z" fill="white"/>
<path fill-rule="evenodd" clip-rule="evenodd" d="M46.0953 85.3774C46.382 86.0534 47.0489 86.9488 48.1333 88.1655C48.8493 88.9689 50.1776 88.5677 50.3292 87.5023C50.6754 85.0683 49.9509 83.3599 47.9969 83.0203C46.4673 82.7544 45.4796 83.9256 46.0953 85.3774ZM49.0772 87.3238L48.8832 87.1044C47.0586 85.0226 46.6909 84.0764 47.7802 84.2657C48.907 84.4616 49.3394 85.4809 49.0772 87.3238Z" fill="#00160A"/>
<path fill-rule="evenodd" clip-rule="evenodd" d="M52.405 89.5195C51.6942 89.611 51.1148 90.4453 50.9552 91.3669C50.7716 92.4269 51.1659 93.4283 52.1769 93.9941L52.8741 94.3805C53.5466 94.7489 54.1504 95.0652 54.7379 95.3476L55.0105 95.4763C55.4482 95.6786 55.8024 95.8202 56.0718 95.8943C56.3475 95.97 56.5567 95.9917 56.7799 95.9102C57.2569 95.7358 57.3406 95.2852 57.1757 94.9016L57.1236 94.7852C57.0577 94.6307 56.8949 94.2426 56.8012 94.0261L56.7809 93.9793C56.5257 93.3956 56.2655 92.8574 55.979 92.3441C54.918 90.4432 53.7771 89.3428 52.405 89.5195ZM55.0052 93.2001C55.177 93.5225 55.3408 93.8594 55.5019 94.2156L55.555 94.3352L55.3993 94.2627L55.2857 94.2085C54.533 93.8468 53.7376 93.4191 52.7944 92.8913C52.2851 92.6062 52.1037 92.1456 52.2011 91.5833C52.2435 91.3387 52.3394 91.1023 52.4596 90.9292C52.4963 90.8763 52.5326 90.8334 52.5652 90.8022L52.6006 90.7712L52.5664 90.7742C53.2244 90.6895 54.0531 91.4888 54.8748 92.9609L55.0052 93.2001Z" fill="#00160A"/>
<path fill-rule="evenodd" clip-rule="evenodd" d="M63.2175 100.424C63.105 99.9344 56.8068 88.4564 61.2293 88.8169C65.6519 89.1775 64.5987 102.186 64.4448 102.186C64.2636 102.186 63.2983 100.776 63.2175 100.424Z" fill="white"/>
<path fill-rule="evenodd" clip-rule="evenodd" d="M59.0249 90.5272C59.0251 91.6253 59.3914 93.079 60.0486 94.8453C60.2459 95.3756 60.4669 95.9267 60.7099 96.4984L60.8583 96.8438C61.4419 98.1888 62.6118 100.61 62.6017 100.566C62.6645 100.839 62.9273 101.296 63.2738 101.797L63.4009 101.98C63.8248 102.581 64.0357 102.799 64.3931 102.818L64.5439 102.822C64.973 102.844 64.9726 102.992 65.0716 102.368L65.1075 102.139C65.1223 102.046 65.1376 101.924 65.1528 101.779L65.1619 101.689C65.2016 101.283 65.2371 100.754 65.2613 100.175C65.3239 98.6796 65.3062 97.079 65.1838 95.5857L65.1504 95.2067C64.7551 91.02 63.6063 88.3769 61.2811 88.1873C59.7951 88.0662 59.0247 88.996 59.0249 90.5272ZM61.1783 89.4472C62.66 89.568 63.6121 91.8902 63.9235 95.6886C64.0413 97.1256 64.0585 98.6752 63.9979 100.122L63.9771 100.552L63.9545 100.513C63.8935 100.409 63.8513 100.329 63.838 100.295L63.834 100.282C63.8068 100.164 62.5382 97.5383 62.0182 96.34C61.7247 95.6636 61.462 95.0177 61.2337 94.4039C60.625 92.7681 60.2895 91.4365 60.2893 90.5265C60.2892 89.6977 60.5015 89.4129 61.1114 89.4428L61.1783 89.4472Z" fill="#00160A"/>
<path fill-rule="evenodd" clip-rule="evenodd" d="M80.5977 123.741C80.5977 123.741 81.9829 121.817 82.7616 120.861C83.5403 119.905 84.375 119.105 84.375 119.105C84.375 119.105 65.5679 117.233 59.0532 112.384C50.5464 106.052 42.9155 95.5502 35.2289 93.3289C26.0398 90.6733 22.6389 96.8326 19.9885 97.3348C11.9143 98.8646 -2.87346 103.218 3.88841 116.367C5.976 120.427 12.7386 122.314 17.5028 120.051C22.8207 117.525 29.3696 111.337 36.2573 111.337C44.2221 111.337 45.6088 117.862 55.7196 121.322C61.9252 123.445 80.5977 123.741 80.5977 123.741Z" fill="white"/>
<path fill-rule="evenodd" clip-rule="evenodd" d="M102.992 170.271C102.992 170.271 107.584 175.283 109.486 178.508C111.389 181.732 110.722 183.481 113.363 184.971C117.331 187.21 121.421 186.645 123.24 185.455C125.06 184.264 123.353 181.217 119.538 181.217C118.6 181.217 117.497 179.062 116.962 177.637C116.428 176.212 116.672 172.704 116.672 172.704L102.992 170.271Z" fill="white"/>
<path fill-rule="evenodd" clip-rule="evenodd" d="M188.511 103.038C188.511 103.038 218.428 139.731 176.358 161.269C146.935 176.332 98.5947 168.199 98.5947 168.199C98.5947 168.199 151.219 182.346 185.613 165.29C207.559 154.407 211.9 135.908 201.43 117.074C198.691 112.145 188.511 103.038 188.511 103.038Z" fill="#E7EAEE"/>
<path fill-rule="evenodd" clip-rule="evenodd" d="M186.754 101.209C187.131 100.71 187.718 100.703 188.157 100.976C189.569 101.852 192.124 103.974 194.582 106.463C197.993 109.918 201.039 113.832 203.374 118.051C209.768 129.603 209.197 141.697 201.082 153.547C193.909 164.021 179.876 170.342 160.177 173.174C142.948 175.651 123.002 175.308 106.474 171.809L105.645 171.631C96.1868 169.566 89.2137 166.943 83.9381 162.889C77.0186 157.572 73.791 150.131 74.8972 140.125C76.5718 124.979 82.5598 116.561 91.5864 113.613C94.942 112.516 98.5361 112.247 102.245 112.613C104.789 112.864 106.925 113.337 109.186 114.004L109.588 114.124C112.044 114.869 114.134 115.692 117.359 117.12L119.742 118.188C124.681 120.402 127.539 121.452 131.239 122.198C135.895 123.137 141.021 123.247 147.24 122.397L148.163 122.266C153.24 121.526 155.965 120.854 157.585 119.82C159.483 118.61 160.16 116.648 159.889 113.932C159.765 112.697 159.458 111.393 158.974 109.874L158.841 109.464C158.632 108.844 158.021 107.1 157.909 106.72C157.769 106.251 157.705 105.924 157.728 105.62C157.785 104.857 158.454 104.386 159.203 104.611C163.158 105.801 165.999 109.256 167.744 114.857C167.899 115.354 167.621 115.883 167.124 116.038C166.627 116.193 166.098 115.915 165.943 115.418C164.615 111.154 162.675 108.381 160.135 107.026L159.968 106.94L160.655 108.942L160.674 109C162.418 116.435 161.122 122.266 149.395 124.067C148.749 124.166 135.781 125.282 130.396 123.95C122.239 121.931 110.662 114.398 103.722 114.124C96.7818 113.85 95.2558 114.398 92.1722 115.406C83.8986 118.109 77.0171 126.863 75.6284 141.322C74.8951 148.957 79.0192 156.693 85.7819 161.459C102.992 173.587 142.902 174.164 159.909 171.719C179.136 168.955 193.538 162.428 200.35 152.481C208.031 141.265 207.793 129.93 201.723 118.965C199.478 114.908 196.537 111.128 193.239 107.788C191.738 106.267 190.202 104.893 188.955 103.89L188.746 103.723L188.928 104.442L189.512 106.686L189.725 107.527C189.758 107.66 189.79 107.789 189.822 107.917L189.933 108.378C190.327 110.037 190.567 111.324 190.649 112.353C190.874 115.199 190.05 117.268 188.135 118.387C187.685 118.65 187.108 118.498 186.845 118.048C186.582 117.599 186.734 117.021 187.183 116.758C188.399 116.048 188.941 114.687 188.768 112.502C188.696 111.589 188.47 110.379 188.095 108.804L187.989 108.365C187.943 108.178 187.896 107.985 187.845 107.785L187.023 104.609C186.901 104.128 186.809 103.75 186.735 103.42L186.714 103.323C186.588 102.751 186.522 102.341 186.519 102.033C186.515 101.717 186.56 101.466 186.754 101.209Z" fill="#00160A"/>
<path fill-rule="evenodd" clip-rule="evenodd" d="M166.389 112.127L167.063 112.013C171.512 111.279 175.103 111.014 177.847 111.222C180.743 111.441 183.812 112.224 187.055 113.566C187.483 113.743 187.686 114.233 187.509 114.661C187.332 115.089 186.841 115.292 186.414 115.115C183.327 113.838 180.429 113.099 177.721 112.894C174.998 112.688 171.311 112.981 166.673 113.779C166.217 113.858 165.783 113.552 165.705 113.095C165.626 112.639 165.932 112.205 166.389 112.127Z" fill="#00160A"/>
<path fill-rule="evenodd" clip-rule="evenodd" d="M171.751 108.365C173.759 107.952 175.594 108.166 177.23 109.011C178.797 109.82 180.154 110.838 181.299 112.064C181.539 112.32 181.525 112.722 181.269 112.962C181.012 113.201 180.61 113.187 180.371 112.931C179.326 111.813 178.086 110.883 176.647 110.14C175.278 109.432 173.739 109.253 172.007 109.609C171.663 109.68 171.327 109.458 171.257 109.115C171.186 108.771 171.408 108.435 171.751 108.365Z" fill="#00160A"/>
<path fill-rule="evenodd" clip-rule="evenodd" d="M175.812 105.039C175.992 104.738 176.382 104.64 176.683 104.82C178.294 105.783 179.627 106.861 180.681 108.055C181.745 109.26 182.618 110.801 183.306 112.673C183.426 113.003 183.257 113.368 182.928 113.489C182.599 113.609 182.234 113.44 182.113 113.111C181.477 111.379 180.681 109.975 179.728 108.895C178.766 107.804 177.534 106.809 176.031 105.91C175.73 105.73 175.632 105.34 175.812 105.039Z" fill="#00160A"/>
<path fill-rule="evenodd" clip-rule="evenodd" d="M157.406 120.133C157.672 119.754 158.195 119.662 158.574 119.927C158.953 120.193 150.859 131.721 150.859 133.958C150.859 136.383 152.05 138.006 155.224 140.567L156.569 141.636L156.96 141.95C158.927 143.539 160.073 144.654 161.047 146.07C162.408 148.049 163.049 150.258 162.886 152.878C162.684 156.11 161.709 158.343 159.777 160.921L159.602 161.151C159.385 161.431 158.429 162.653 158.167 163.011C157.232 164.287 156.792 165.248 156.712 166.377C156.359 171.349 158.699 177.353 163.78 184.366C164.051 184.741 163.968 185.265 163.593 185.537C163.218 185.808 162.693 185.725 162.422 185.35C157.131 178.047 154.654 171.69 155.039 166.258C155.142 164.817 155.667 163.623 156.689 162.193L156.814 162.02C157.115 161.609 158.212 160.21 158.304 160.089C160.145 157.674 162.805 154.142 160.675 147.419C159.602 144.034 149.417 141.636 149.082 134.431C149.003 132.734 151.833 128.089 157.406 120.133Z" fill="#00160A"/>
<path d="M160.489 154.989L159.319 155.002C152.392 155.091 148.179 155.44 146.878 155.998L146.831 156.019C144.917 156.896 143.411 158.086 142.261 159.513C141.367 160.621 140.736 161.808 140.323 162.993C140.2 163.346 140.104 163.677 140.033 163.977L139.985 164.191L141.989 166.758C142.009 166.783 142.027 166.81 142.043 166.837L142.063 166.865L142.126 166.957C142.559 167.584 143.05 168.198 143.682 168.914L143.974 169.238C144.493 169.804 146.145 171.585 146.706 172.226C147.908 173.598 148.919 174.917 149.888 176.432C151.365 178.742 152.667 181.408 153.836 184.638L153.921 184.874L154.005 185.116C154.107 185.415 154.207 185.722 154.315 186.068L154.809 187.687C155.538 190.074 156.047 191.17 156.854 191.834L156.99 191.943C158.048 192.767 159.034 192.97 161.776 193.057L162.577 193.08C166.222 193.179 168.122 190.285 166.037 188.182C165.383 187.522 163.226 187.011 159.698 186.797C159.236 186.769 159.67 185.578 159.698 185.116C159.726 184.654 160.124 184.302 160.586 184.33C160.995 184.355 161.387 184.383 161.763 184.415C157.091 177.643 154.81 171.872 155.173 166.758C155.275 165.317 155.12 164.753 156.142 163.323L156.338 163.055C156.71 162.558 157.671 161.332 157.758 161.218C158.544 160.186 159.093 159.341 159.532 158.418L159.619 158.232L159.648 158.165L159.697 158.058C159.928 157.528 160.173 156.616 160.423 155.338L160.489 154.989Z" fill="white"/>
<path fill-rule="evenodd" clip-rule="evenodd" d="M140.797 163.218C141.458 165.145 142.61 166.322 144.215 168.142L144.44 168.395C144.841 168.836 146.658 170.792 147.252 171.471C148.453 172.842 149.465 174.162 150.434 175.677C151.91 177.986 153.213 180.653 154.382 183.882C154.439 184.037 154.494 184.196 154.55 184.36L154.703 184.819C154.738 184.924 154.772 185.031 154.807 185.143L155.007 185.786C155.109 186.121 155.316 186.806 155.355 186.932L155.465 187.289C156.137 189.43 156.634 190.449 157.4 191.078L157.536 191.187C158.549 191.976 159.496 192.196 161.981 192.29L163.123 192.324C166.767 192.424 168.668 189.529 166.583 187.426C165.929 186.767 163.772 186.256 160.244 186.041C159.782 186.013 159.43 185.616 159.458 185.154C159.486 184.691 159.883 184.34 160.346 184.368L160.786 184.396C164.47 184.651 166.76 185.224 167.774 186.246C171.038 189.538 168.131 194.046 163.226 194.003L162.636 193.988C159.134 193.894 157.879 193.643 156.335 192.374C155.234 191.468 154.636 190.251 153.868 187.799L153.37 186.165L153.21 185.652C153.142 185.438 153.077 185.238 153.012 185.046L152.964 184.902C152.911 184.748 152.858 184.598 152.806 184.453C151.678 181.338 150.43 178.783 149.021 176.58C148.172 175.252 147.287 174.081 146.253 172.877L145.991 172.576C145.385 171.884 143.414 169.763 143.139 169.457C141.351 167.458 140.283 165.844 139.521 163.716L139.443 163.494C137.96 159.168 136.056 157.692 133.569 158.614C133.135 158.775 128.276 161.106 132.982 157.976C137.688 154.847 140.797 163.218 140.797 163.218Z" fill="#00160A"/>
<path fill-rule="evenodd" clip-rule="evenodd" d="M170.055 133.432C169.142 133.432 167.831 130.808 167.831 129.525C167.831 128.243 171.111 128.677 171.111 128.677C171.111 128.677 174.556 129.139 174.081 130.428C173.606 131.718 170.563 133.432 170.055 133.432Z" fill="#FFB61D"/>
<ellipse cx="164.655" cy="123.992" rx="1.80937" ry="3.38022" fill="#00160A"/>
<ellipse cx="181.959" cy="124.756" rx="1.98295" ry="3.32727" fill="#00160A"/>
<path fill-rule="evenodd" clip-rule="evenodd" d="M180.665 130.342C182.175 129.693 183.847 129.571 185.662 129.967C187.436 130.354 192.783 133.7 192.596 133.997C192.409 134.294 186.995 131.558 185.391 131.208C183.826 130.866 182.424 130.969 181.166 131.509C180.844 131.648 180.47 131.499 180.332 131.176C180.194 130.854 180.343 130.48 180.665 130.342Z" fill="#00160A"/>
<path fill-rule="evenodd" clip-rule="evenodd" d="M181.628 132.538C183.213 132.622 183.626 132.26 185.798 133.67C187.97 135.08 189.593 138.4 189.296 138.587C188.999 138.773 187.266 135.812 185.276 134.321C183.287 132.83 180.941 133.489 180.96 133.138C180.977 132.807 181.245 132.549 181.57 132.537L181.628 132.538Z" fill="#00160A"/>
<path fill-rule="evenodd" clip-rule="evenodd" d="M170.617 134.808C170.176 137.545 170.287 139.288 170.452 141.233C170.617 143.178 172.171 145.978 172.327 147.148C172.483 148.318 169.387 143.492 169.199 141.446C169.012 139.4 167.685 133.839 170.003 134.098C170.003 134.098 170.666 134.504 170.617 134.808Z" fill="#00160A"/>
<path fill-rule="evenodd" clip-rule="evenodd" d="M159.078 130.677C160.486 130.677 161.057 130.711 162.428 130.981C162.772 131.049 162.996 131.383 162.928 131.727C162.86 132.071 162.526 132.295 162.182 132.228C161.694 132.132 160.759 131.723 159.207 131.74C157.086 131.762 155.24 132.939 155.148 132.744C154.997 132.427 157.67 130.677 159.078 130.677Z" fill="#00160A"/>
<path fill-rule="evenodd" clip-rule="evenodd" d="M161.381 127.949C161.722 128.03 161.934 128.372 161.853 128.713C161.772 129.055 161.43 129.266 161.089 129.186C158.039 128.466 155.592 128.486 153.865 128.418C152.168 128.352 148.359 128.618 148.248 128.285C148.136 127.953 158.258 127.213 161.381 127.949Z" fill="#00160A"/>
<path fill-rule="evenodd" clip-rule="evenodd" d="M175.531 168.391C175.994 168.399 176.362 168.781 176.354 169.244C176.324 170.953 176.564 172.161 177.025 172.855C178.963 175.768 180.607 177.734 182.148 178.388C182.191 178.406 182.291 178.431 182.447 178.462L182.678 178.503C182.851 178.532 183.583 178.643 183.711 178.663C184.193 178.739 184.59 178.812 184.978 178.9C185.834 179.094 186.545 179.342 187.135 179.687C188.907 180.722 190.076 182.235 190.189 183.723C190.321 185.442 189.071 186.726 186.862 187.129C181.439 188.118 177.642 187.149 175.642 184.135C173.561 181.185 171.482 178.737 169.408 176.792C167.368 174.879 165.557 173.648 163.995 173.094C163.559 172.94 163.33 172.46 163.485 172.024C163.64 171.588 164.119 171.359 164.555 171.514C166.367 172.156 168.361 173.51 170.556 175.569C172.717 177.597 174.869 180.13 177.026 183.188C178.602 185.562 181.728 186.361 186.562 185.479C187.995 185.218 188.576 184.621 188.518 183.851C188.451 182.984 187.626 181.916 186.289 181.134C185.871 180.89 185.31 180.695 184.607 180.535C184.304 180.467 183.988 180.407 183.613 180.345L182.401 180.157L182.167 180.116C181.877 180.061 181.67 180.007 181.493 179.932C180.341 179.443 179.157 178.39 177.917 176.907C177.099 175.93 176.471 175.05 175.629 173.784C174.944 172.753 174.642 171.233 174.678 169.214C174.686 168.751 175.068 168.383 175.531 168.391Z" fill="#00160A"/>
<path fill-rule="evenodd" clip-rule="evenodd" d="M182.303 183.859C182.386 183.581 182.678 183.424 182.955 183.506C183.818 183.764 184.429 184.049 184.802 184.388C185.155 184.709 185.504 185.202 185.862 185.871C185.999 186.127 185.903 186.444 185.647 186.581C185.392 186.717 185.075 186.621 184.938 186.366C184.632 185.793 184.347 185.391 184.097 185.164C183.866 184.954 183.381 184.727 182.655 184.511C182.378 184.428 182.22 184.136 182.303 183.859Z" fill="#00160A"/>
<path fill-rule="evenodd" clip-rule="evenodd" d="M185.037 182.75C185.128 182.476 185.425 182.327 185.699 182.419C186.439 182.665 186.988 182.945 187.353 183.277C187.715 183.606 188.063 184.137 188.414 184.878C188.539 185.14 188.427 185.452 188.166 185.576C187.904 185.7 187.592 185.589 187.468 185.328C187.169 184.699 186.89 184.272 186.648 184.052C186.41 183.836 185.981 183.617 185.368 183.413C185.094 183.322 184.945 183.025 185.037 182.75Z" fill="#00160A"/>
<path fill-rule="evenodd" clip-rule="evenodd" d="M162.604 189.972C162.695 189.697 162.992 189.549 163.266 189.64C164.006 189.886 164.555 190.167 164.92 190.498C165.282 190.827 165.63 191.359 165.981 192.1C166.105 192.361 165.994 192.674 165.733 192.798C165.471 192.922 165.159 192.811 165.035 192.549C164.736 191.921 164.457 191.494 164.215 191.274C163.977 191.057 163.548 190.839 162.935 190.635C162.661 190.543 162.512 190.247 162.604 189.972Z" fill="#00160A"/>
<path fill-rule="evenodd" clip-rule="evenodd" d="M164.128 188.194C164.219 187.919 164.516 187.771 164.79 187.862C165.529 188.108 166.079 188.388 166.444 188.72C166.806 189.049 167.154 189.581 167.505 190.322C167.629 190.583 167.518 190.896 167.257 191.02C166.995 191.144 166.683 191.032 166.559 190.771C166.26 190.143 165.981 189.715 165.739 189.496C165.501 189.279 165.072 189.06 164.459 188.856C164.185 188.765 164.036 188.468 164.128 188.194Z" fill="#00160A"/>
<path fill-rule="evenodd" clip-rule="evenodd" d="M102.425 169.652C102.767 169.34 108.554 175.977 109.795 178.081C110.195 178.759 110.511 179.411 110.792 180.11C110.878 180.325 110.959 180.537 111.046 180.778L111.375 181.707C111.863 183.064 112.675 183.619 113.775 184.24C117.002 186.061 120.814 186.039 122.781 184.752C123.872 184.039 122.399 182.054 119.538 182.054C118.201 182.054 117.051 180.262 116.177 177.93C115.767 176.838 115.665 175.094 115.836 172.644C115.868 172.182 116.268 171.834 116.73 171.866C117.192 171.898 117.54 172.299 117.508 172.761C117.353 174.988 117.444 176.534 117.747 177.342L117.835 177.57C118.424 179.046 119.29 180.378 119.538 180.378C121.554 180.378 123.258 181.154 124.175 182.389C125.145 183.695 125.017 185.293 123.699 186.155C121.192 187.795 116.71 187.821 112.951 185.7C111.498 184.881 110.862 184.031 110.266 182.427L109.946 181.526C109.839 181.225 109.747 180.98 109.648 180.735C109.398 180.112 109.119 179.534 108.764 178.933C107.53 176.843 105.398 174.139 102.374 170.837C102.061 170.495 102.084 169.965 102.425 169.652Z" fill="#00160A"/>
<path fill-rule="evenodd" clip-rule="evenodd" d="M117.952 183.859C118.035 183.581 118.326 183.424 118.604 183.506C119.467 183.764 120.078 184.049 120.451 184.388C120.804 184.709 121.153 185.202 121.511 185.871C121.648 186.127 121.551 186.444 121.296 186.581C121.041 186.717 120.724 186.621 120.587 186.366C120.281 185.793 119.996 185.391 119.746 185.164C119.515 184.954 119.03 184.727 118.304 184.511C118.027 184.428 117.869 184.136 117.952 183.859Z" fill="#00160A"/>
<path fill-rule="evenodd" clip-rule="evenodd" d="M119.923 183.005C120.015 182.731 120.311 182.582 120.586 182.673C121.325 182.919 121.875 183.2 122.24 183.532C122.602 183.861 122.949 184.392 123.301 185.133C123.425 185.394 123.314 185.707 123.053 185.831C122.791 185.955 122.479 185.844 122.354 185.582C122.056 184.954 121.777 184.527 121.535 184.307C121.297 184.091 120.868 183.872 120.255 183.668C119.981 183.576 119.832 183.28 119.923 183.005Z" fill="#00160A"/>
<path fill-rule="evenodd" clip-rule="evenodd" d="M23.2715 94.322L23.0944 94.4443C22.5333 94.8362 21.4529 95.6245 21.215 95.7918L21.1906 95.8088C20.5741 96.2335 20.1578 96.4486 19.8324 96.5102C14.0839 97.5994 9.11921 98.8184 5.72077 101.391C0.968835 104.989 -1.59807 111.281 1.65787 117.612C3.97477 122.118 12.7337 123.244 17.8626 120.808C18.7401 120.391 19.6748 119.869 20.8025 119.179L21.2713 118.89C21.4335 118.789 21.6004 118.684 21.778 118.572L23.0059 117.788L24.3485 116.928L24.8399 116.617C29.7763 113.516 32.9126 112.175 36.2573 112.175C39.022 112.175 40.9676 112.934 43.4118 114.727L43.5961 114.864C44.0205 115.181 46.7749 117.378 47.7049 118.055C50.1147 119.809 52.4941 121.103 55.4482 122.114L55.708 122.2C60.0312 123.599 68.3007 124.384 80.5845 124.579C80.8589 124.583 81.118 124.453 81.2783 124.23L81.7571 123.569C82.445 122.626 82.9972 121.898 83.4116 121.39C83.9094 120.779 84.4239 120.219 84.9551 119.71C85.472 119.214 85.1704 118.341 84.458 118.27L83.7191 118.195C71.7294 116.947 63.6583 114.766 59.5539 111.711L59.2547 111.486C57.0657 109.831 54.9752 107.963 51.7886 104.906L47.6705 100.95C46.0424 99.3988 45.4701 98.8944 44.3294 97.9256L44.1508 97.774C41.4841 95.5125 39.1704 93.9622 36.926 93.0372C36.4335 92.8342 35.9458 92.6625 35.4618 92.5226C30.4641 91.0784 26.8763 91.8809 23.2715 94.322ZM34.9959 94.1336C35.4198 94.256 35.8498 94.4074 36.2868 94.5875C38.2756 95.4072 40.3807 96.8011 42.8208 98.8462L43.7757 99.6578C44.8268 100.562 45.5545 101.238 47.9769 103.566L50.8496 106.329C54.1029 109.444 56.2338 111.33 58.5524 113.056L58.6885 113.156C62.9005 116.216 70.5518 118.366 81.6819 119.658L82.5923 119.76L82.5797 119.775C82.4745 119.895 82.37 120.018 82.2663 120.142L82.0376 120.421L81.8626 120.641C81.5305 121.061 81.1354 121.582 80.6767 122.206L80.1733 122.895L79.1545 122.876C67.6002 122.641 59.8576 121.85 55.9908 120.527C53.3135 119.611 51.1457 118.453 48.9547 116.889L48.6916 116.699C47.799 116.049 45.0555 113.861 44.5994 113.52C41.8007 111.429 39.4959 110.498 36.257 110.498C32.5024 110.498 29.1456 111.932 23.956 115.192L23.1585 115.698L21.4482 116.794C20.9406 117.118 20.5394 117.371 20.1494 117.612L19.7162 117.877C18.7294 118.475 17.9053 118.931 17.1428 119.293C12.7949 121.359 6.51517 119.642 4.6338 115.983C1.75622 110.387 2.76873 106.275 6.8808 103.161C10.0221 100.783 14.6298 99.2026 20.1443 98.1578C20.7215 98.0484 21.2778 97.7722 22.0035 97.2838L22.1416 97.1897C22.3567 97.0415 23.6615 96.0881 24.1596 95.7459L24.2115 95.7104C27.431 93.5302 30.5184 92.8396 34.9959 94.1336Z" fill="#00160A"/>
<path fill-rule="evenodd" clip-rule="evenodd" d="M235.792 116.92L235.713 117.112L235.554 117.509C233.492 122.741 231.672 130.757 230.082 141.575L229.99 142.211L229.984 142.18C229.369 138.552 228.591 135.733 227.645 133.714C226.002 130.206 223.66 128.882 220.893 130.14C211.913 134.226 212.449 150.837 221.959 180.03C222.085 180.418 222.447 180.681 222.855 180.681H233.18C233.457 180.681 233.72 180.559 233.899 180.348C246.791 165.141 252.565 154.919 251.154 149.302L251.108 149.124C249.823 144.292 246.612 143.257 242.031 145.853L241.869 145.946L242.097 145.421C250.042 127.014 251.501 115.68 246.132 111.263C242.19 108.02 238.593 110.166 235.792 116.92ZM245.086 111.991C249.813 115.879 248.133 128.613 239.167 148.35C238.757 149.252 249.324 142.179 249.324 149.761L249.357 149.905C250.375 154.572 245.124 163.993 233.548 177.835L232.741 178.794L222.855 179.498C222.855 179.498 209.527 135.49 221.674 131.857C225.169 130.811 227.748 135.888 229.027 149.619C229.132 150.743 230.765 150.767 230.903 149.646L231.015 148.741C232.852 134.056 235.032 123.677 237.535 117.642L237.678 117.302C240.015 111.829 242.446 109.818 245.086 111.991Z" fill="#00160A"/>
<path d="M244.933 112.721C249.659 116.609 247.744 128.516 238.778 148.253C238.368 149.155 239.45 149.998 240.225 149.38L240.54 149.132C245.634 145.167 248.245 145.47 249.324 149.763L249.358 149.907C250.375 154.573 245.124 163.994 233.548 177.836L232.741 178.795H223.541L223.211 177.767C214.537 150.581 214.194 135.261 221.674 131.858C225.124 130.289 227.748 135.889 229.027 149.62C229.132 150.745 230.765 150.768 230.903 149.648L231.015 148.743C232.852 134.057 235.032 123.679 237.535 117.644L237.678 117.303C240.015 111.831 242.292 110.548 244.933 112.721Z" fill="white"/>
<circle cx="220.354" cy="143.884" r="3.35369" fill="#E7EAEE"/>
<circle cx="241.315" cy="122.086" r="3.35369" fill="#E7EAEE"/>
<circle cx="242.991" cy="154.365" r="3.35369" fill="#E7EAEE"/>
<path fill-rule="evenodd" clip-rule="evenodd" d="M65.2378 183.011C59.318 183.105 38.9605 184.613 38.6088 183.858C38.1589 182.892 60.3587 181.621 65.1977 181.545L66.7134 181.524C71.1133 181.476 65.2378 183.011 65.2378 183.011ZM152.317 181.049C152.837 181.035 153.271 181.446 153.284 181.967C153.298 182.487 152.887 182.921 152.366 182.934L143.941 183.142C138.697 183.263 132.618 183.388 123.636 183.565C123.115 183.575 122.685 183.161 122.675 182.64C122.664 182.119 123.078 181.689 123.599 181.678L139.504 181.354C144.333 181.25 148.212 181.157 152.317 181.049ZM174.049 180.61C174.57 180.602 174.999 181.017 175.007 181.538C175.015 182.059 174.6 182.488 174.079 182.496L171.868 182.523L165.106 182.57C163.69 182.584 162.582 182.604 161.275 182.636C160.754 182.649 160.322 182.237 160.309 181.716C160.296 181.195 160.708 180.763 161.229 180.75L162.892 180.714C163.981 180.694 165.088 180.682 166.558 180.671L172.182 180.634C172.836 180.627 173.428 180.62 174.049 180.61ZM235.178 178.795C235.178 178.795 236.871 178.502 249.235 179.428C249.754 179.467 250.144 179.92 250.105 180.439C250.066 180.959 243.952 180.696 235.594 180.682L233.295 180.685C227.158 180.713 221.457 180.879 211.994 181.268L200.051 181.773C194.954 181.981 191.914 182.083 188.216 182.17C187.695 182.183 187.263 181.77 187.251 181.25C187.239 180.729 187.651 180.297 188.172 180.284L191.141 180.207C194.673 180.105 198.303 179.962 204.737 179.688L211.561 179.398C222.231 178.957 228.163 178.795 235.178 178.795Z" fill="#00160A"/>
<path d="M206.597 43.0193L206.813 42.6219C208.505 39.5585 209.978 38.0377 211.696 38.5339C211.835 38.5741 211.972 38.629 212.106 38.6983C213.159 39.2441 213.412 40.259 213.116 41.644L213.097 41.7293L213.147 41.6582C213.645 40.9495 214.121 40.4022 214.614 39.996L214.721 39.9111C215.817 39.0574 216.981 38.978 218.034 39.8675C219.717 41.2877 219.526 43.6699 218.152 45.1361L218.076 45.2151C217.885 45.4082 217.77 45.8259 217.642 46.809L217.531 47.6704C217.398 48.6643 217.309 49.1002 217.099 49.7735C216.703 51.0451 216.054 52.1059 215.043 52.9722C213.772 54.0611 211.628 53.9092 208.607 52.6679C208.283 52.5345 208.128 52.1634 208.261 51.8389C208.395 51.5144 204.024 47.6604 203.892 47.8294L203.849 47.8785C203.606 48.1315 203.204 48.1395 202.951 47.8965L202.337 47.3049C201.968 46.9484 202.152 46.3233 202.656 46.2244C203.579 46.0433 204.295 45.8434 204.799 45.6299C205.222 45.4507 205.452 45.2792 205.507 45.168C205.507 45.168 206.425 43.3405 206.597 43.0193Z" fill="white"/>
<path fill-rule="evenodd" clip-rule="evenodd" d="M202.064 46.2887C200.994 46.2083 200.364 47.0223 200.364 48.0077C200.364 51.4186 205.937 56.0834 209.568 56.0834C210.633 56.0834 211.504 55.3221 211.194 54.1583C211.078 53.7197 210.81 53.3305 210.37 52.8509L210.273 52.7467C209.779 52.2217 209.267 51.7528 208.121 50.7665L206.365 49.2617C205.935 48.8889 205.25 48.2942 205.042 48.1172L204.793 47.9055C204.313 47.5008 203.942 47.2061 203.611 46.9719C203.025 46.5579 202.571 46.3268 202.064 46.2887ZM201.635 48.0069C201.635 46.6733 203.545 48.5171 205.845 50.4902L207.373 51.7973C209.243 53.4097 211.526 55.0871 210.37 55.2102C206.707 55.6 201.635 50.7434 201.635 48.0069Z" fill="#00160A"/>
<path fill-rule="evenodd" clip-rule="evenodd" d="M202.358 37.3487C202.62 37.116 203.932 36.2005 203.254 37.4027C202.577 38.605 198.662 40.1299 202.577 46.2098C202.726 46.441 202.545 46.905 202.218 47.0333C201.891 47.1615 201.523 47.0007 201.395 46.6741C200.405 44.1529 199.947 42.3277 200.034 41.1411C200.127 39.8838 200.917 38.6261 202.358 37.3487Z" fill="#00160A"/>
<path fill-rule="evenodd" clip-rule="evenodd" d="M197.466 39.4658C197.535 39.1218 198.214 38.2706 198.214 38.9679C198.214 39.6651 197.216 41.4338 198.62 43.4267C200.024 45.4196 202.439 46.7713 202.233 47.0548C202.026 47.3384 201.629 47.4008 201.345 47.1943C199.313 45.7136 198.079 44.5553 197.614 43.6473C197.129 42.6999 197.095 41.3136 197.466 39.4658Z" fill="#00160A"/>
<path fill-rule="evenodd" clip-rule="evenodd" d="M206.597 43.0193L206.813 42.6219C208.505 39.5585 209.978 38.0377 211.696 38.5339C211.835 38.5741 211.972 38.629 212.106 38.6983C213.159 39.2441 213.412 40.259 213.116 41.644L213.097 41.7293L213.147 41.6582C213.645 40.9495 214.121 40.4022 214.614 39.996L214.721 39.9111C215.817 39.0574 216.981 38.978 218.034 39.8675C219.717 41.2877 219.526 43.6699 218.152 45.1361L218.076 45.2151C217.885 45.4082 217.77 45.8259 217.642 46.809L217.531 47.6704C217.398 48.6643 217.309 49.1002 217.099 49.7735C216.703 51.0451 216.054 52.1059 215.043 52.9722C213.772 54.0611 211.628 53.9092 208.607 52.6679C208.283 52.5345 208.128 52.1634 208.261 51.8389C208.395 51.5144 212.968 54.172 214.721 52.106C216.473 50.04 216.662 45.7664 217.168 44.4712L217.29 44.2454C218.259 43.2656 218.291 41.747 217.215 40.8382C216.659 40.3694 216.156 40.4037 215.501 40.9137C214.904 41.3783 214.282 42.1759 213.564 43.3366L213.355 43.6828C213.002 44.2782 212.295 45.5126 212.201 45.6695L212.072 45.8832C211.637 46.5942 211.082 47.0395 211 47.0586C210.918 47.0777 210.801 47.0116 210.772 46.4102C210.762 46.2124 210.812 46.0134 210.918 45.7427L210.96 45.6377C211.087 45.3276 211.789 43.8696 211.837 43.7651C212.05 43.3059 212.221 42.9057 212.363 42.5282C212.934 41.0067 212.084 40.118 211.521 39.8262C211.461 39.7949 211.402 39.7712 211.344 39.7544C210.471 39.5024 209.257 40.7976 207.84 43.3926L207.533 43.9669C207.306 44.4 207.083 44.8455 206.646 45.7304C206.329 46.374 205.481 46.8352 204.067 47.2073L203.99 47.2269L203.997 47.2454C204.059 47.4406 204.024 47.6604 203.892 47.8294L203.849 47.8785C203.606 48.1315 203.204 48.1395 202.951 47.8965L202.337 47.3049C201.968 46.9484 202.152 46.3233 202.656 46.2244C203.579 46.0433 204.295 45.8434 204.799 45.6299C205.222 45.4507 205.452 45.2792 205.507 45.168L206.101 43.9735C206.283 43.6122 206.425 43.3405 206.597 43.0193Z" fill="#00160A"/>
<ellipse cx="214.933" cy="44.9626" rx="1.44328" ry="1.18328" fill="#FFB61D"/>
<ellipse cx="210.809" cy="41.6628" rx="1.44328" ry="1.18328" fill="#FFB61D"/>
<path fill-rule="evenodd" clip-rule="evenodd" d="M201.936 49.9632C201.735 49.7845 201.483 49.4623 201.261 49.1135L200.976 49.2405L200.638 49.3853C200.57 49.4163 200.526 49.4406 200.513 49.4603C200.474 49.5328 200.384 49.5604 200.31 49.5219C200.239 49.4835 200.21 49.3936 200.249 49.3213C200.276 49.2525 200.466 49.0368 200.818 48.8258C200.882 48.7875 200.953 48.752 201.028 48.7173C200.899 48.4742 200.796 48.2393 200.748 48.051C200.676 47.7733 200.734 47.5765 200.829 47.5073C200.922 47.4389 201.157 47.4262 201.514 47.7224C201.579 47.7724 201.59 47.8658 201.54 47.9307C201.49 47.9954 201.397 48.0074 201.331 47.9574C201.264 47.9073 201.195 47.8789 201.14 47.8584L201.167 47.9647C201.177 48.0027 201.19 48.0423 201.208 48.081C201.272 48.2209 201.354 48.3806 201.445 48.5446C201.724 48.4392 202.041 48.3436 202.384 48.2976C202.551 48.2751 202.722 48.2707 202.899 48.2722C203.001 48.2655 203.089 48.3427 203.096 48.4447C203.102 48.5465 203.025 48.6346 202.923 48.6413C202.511 48.6811 202.129 48.7853 201.793 48.9025L201.682 48.9422C201.864 49.227 202.059 49.4856 202.227 49.6316C202.317 49.7118 202.327 49.8513 202.247 49.9427C202.166 50.0345 202.027 50.0436 201.936 49.9632Z" fill="#FFB61D"/>
<path fill-rule="evenodd" clip-rule="evenodd" d="M104.965 163.413C103.922 168.327 98.8893 169.721 98.9438 173.676C98.972 175.722 99.5368 177.42 100.001 178.725C100.944 181.379 103.402 184.112 104.54 186.643C105.512 188.806 110.393 187.343 110.783 190.704C110.995 192.536 107.543 193.59 106.603 193.662C105.254 193.764 103.544 193.301 101.474 192.272C98.9557 191.049 96.9344 190.084 95.4711 188.322C95.1857 187.978 95.0065 187.007 94.6909 185.481C94.3455 183.811 93.1658 179.565 90.0835 172.71C89.6433 171.731 87.9582 167.725 86.0841 163.627C84.5376 160.245 90.9291 153.47 93.763 153.707C100.724 154.289 105.702 159.943 104.965 163.413Z" fill="white"/>
<path fill-rule="evenodd" clip-rule="evenodd" d="M100.085 192.344C98.3516 191.312 96.9263 190.123 95.8087 188.776C95.5233 188.433 95.3136 187.166 94.998 185.64C94.8325 184.84 88.8161 170.406 86.8316 164.973C86.4613 163.96 87.3602 164.669 87.5714 164.973C88.7228 166.633 95.8087 177.577 99.1942 187.716" fill="#E7EAEE"/>
<path fill-rule="evenodd" clip-rule="evenodd" d="M101.434 191.913L101.692 192.04C103.639 193.008 105.211 193.434 106.385 193.345C107.645 193.249 109.702 192.113 109.793 191.145C109.939 189.592 109.519 189.151 107.44 188.366C106.838 188.139 105.208 188.188 102.697 188.569C102.239 188.638 101.811 188.323 101.742 187.865C101.673 187.407 101.988 186.98 102.446 186.911L102.859 186.85C105.428 186.482 107.111 186.449 108.033 186.798L108.306 186.903C110.8 187.89 111.688 188.909 111.463 191.302C111.272 193.33 108.489 194.867 106.511 195.017C105.036 195.129 103.258 194.663 101.163 193.649L100.953 193.545C98.3319 192.272 96.2454 190.707 94.7015 188.847C94.4981 188.602 94.368 188.276 94.2346 187.775L94.2037 187.656C94.1542 187.462 94.1048 187.246 94.0472 186.976L93.7148 185.345L93.6636 185.107C93.1167 182.658 91.5329 178.139 89.1332 172.77L88.7675 171.962C88.5418 171.47 85.3235 166.255 85.0832 165.033C84.1851 160.463 87.8578 158.199 87.8578 158.199C87.8578 158.199 85.953 162.218 86.4898 164.194C86.9071 165.73 90.429 171.016 91.6819 175.068C92.9786 179.261 94.3356 183.736 96.3179 187.394C97.8144 190.156 98.8856 191.407 101.434 191.913Z" fill="#00160A"/>
<path fill-rule="evenodd" clip-rule="evenodd" d="M105.501 190.974C105.584 190.696 105.876 190.539 106.153 190.622C107.016 190.88 107.627 191.165 108 191.503C108.354 191.824 108.703 192.317 109.061 192.987C109.197 193.242 109.101 193.559 108.846 193.696C108.59 193.832 108.273 193.736 108.136 193.481C107.83 192.908 107.545 192.506 107.295 192.279C107.064 192.069 106.579 191.843 105.853 191.626C105.576 191.543 105.418 191.251 105.501 190.974Z" fill="#00160A"/>
<path fill-rule="evenodd" clip-rule="evenodd" d="M106.965 189.357C107.056 189.082 107.353 188.934 107.628 189.025C108.367 189.271 108.916 189.552 109.281 189.883C109.643 190.212 109.991 190.744 110.343 191.485C110.467 191.746 110.355 192.059 110.094 192.183C109.833 192.307 109.52 192.195 109.396 191.934C109.098 191.306 108.818 190.878 108.577 190.659C108.338 190.442 107.91 190.223 107.297 190.019C107.022 189.928 106.874 189.631 106.965 189.357Z" fill="#00160A"/>
<path fill-rule="evenodd" clip-rule="evenodd" d="M101.718 155.584C103.561 156.326 107.187 160.436 106.626 162.745C106.046 165.132 105.195 166.086 103.842 167.669L103.7 167.832C103.287 168.302 101.583 170.033 101.515 170.106L101.353 170.285C99.8342 171.999 99.2133 173.895 100.449 177.388C101.354 179.947 102.844 182.856 104.899 185.631C105.17 185.997 105.845 187.071 105.479 187.343C105.113 187.614 104.247 186.738 103.975 186.372C101.827 183.472 100.27 180.662 99.3065 177.938C97.8509 173.823 98.2021 172.128 100.211 169.913L100.339 169.774C100.554 169.55 102.031 168.048 102.422 167.612L102.461 167.568C103.724 166.132 104.556 164.611 105.09 162.413C105.459 160.894 103.907 158.196 100.629 156.007C98.453 154.554 99.8742 154.842 101.718 155.584Z" fill="#00160A"/>
</svg>
