<svg width="414" height="896" viewBox="0 0 414 896" fill="none" xmlns="http://www.w3.org/2000/svg">
<g clip-path="url(#clip0_2632_5904)">
<rect width="414" height="896" fill="#16181E"/>
<path d="M321.589 867.4C321.589 875.341 315.129 881.801 307.189 881.801C299.249 881.801 292.789 875.341 292.789 867.4C292.789 859.46 299.249 853 307.189 853C315.129 853 321.589 859.46 321.589 867.4Z" fill="#272A34"/>
<path d="M499 59L368 59L368 -4.18301e-06L499 -9.9092e-06L499 59Z" fill="#202229"/>
<path d="M518.822 807.783L376.524 731.891L518.822 656L518.822 807.783Z" fill="#24262F"/>
<path d="M626.745 816.638L626.745 817.621L412.052 817.621L412.052 816.638L626.745 816.638Z" fill="#272A34"/>
<path d="M626.745 784.988L626.745 785.97L412.052 785.97L412.052 784.988L626.745 784.988Z" fill="#272A34"/>
<path d="M626.745 753.339L626.745 754.32L412.052 754.32L412.052 753.339L626.745 753.339Z" fill="#272A34"/>
<path d="M626.745 721.689L626.745 722.672L412.052 722.672L412.052 721.689L626.745 721.689Z" fill="#272A34"/>
<path d="M626.745 690.039L626.745 691.021L412.052 691.021L412.052 690.039L626.745 690.039Z" fill="#272A34"/>
<path d="M626.745 658.388L626.745 659.371L412.052 659.371L412.052 658.388L626.745 658.388Z" fill="#272A34"/>
<path d="M92.3493 749C101.378 749 108.698 756.32 108.698 765.349C108.698 774.378 101.378 781.698 92.3493 781.698C83.3198 781.698 76 774.378 76 765.349C76 756.32 83.3198 749 92.3493 749Z" fill="#24262F"/>
<path d="M126.575 879.188L159.588 912.201L157.703 912.201L124.689 879.188L126.575 879.188Z" fill="#272A32"/>
<path d="M143.659 879.188L176.672 912.201L174.787 912.201L141.773 879.188L143.659 879.188Z" fill="#272A32"/>
<path d="M160.743 879.188L193.756 912.201L191.871 912.201L158.857 879.188L160.743 879.188Z" fill="#272A32"/>
<path d="M177.827 879.188L210.842 912.201L208.956 912.201L175.942 879.188L177.827 879.188Z" fill="#272A32"/>
<path d="M194.911 879.188L227.924 912.201L226.039 912.201L193.026 879.188L194.911 879.188Z" fill="#272A32"/>
<path d="M211.995 879.188L245.01 912.201L243.123 912.201L210.11 879.188L211.995 879.188Z" fill="#272A32"/>
<path d="M229.079 879.188L262.092 912.201L260.207 912.201L227.194 879.188L229.079 879.188Z" fill="#272A32"/>
<path d="M-17.6966 138.69L2.99414 118L1.81253 118L-18.8783 138.69L-17.6966 138.69Z" fill="#3D404B"/>
<path d="M-6.98866 138.69L13.7021 118L12.5205 118L-8.17026 138.69L-6.98866 138.69Z" fill="#3D404B"/>
<path d="M3.71766 138.69L24.4084 118L23.2268 118L2.53603 138.69L3.71766 138.69Z" fill="#3D404B"/>
<path d="M14.4259 138.69L35.1167 118L33.9351 118L13.2443 138.69L14.4259 138.69Z" fill="#3D404B"/>
<path d="M25.1322 138.69L45.823 118L44.6414 118L23.9506 138.69L25.1322 138.69Z" fill="#3D404B"/>
<path d="M35.8404 138.69L56.5312 118L55.3496 118L34.6588 138.69L35.8404 138.69Z" fill="#3D404B"/>
<path d="M46.5468 138.69L67.2375 118L66.0559 118L45.3651 138.69L46.5468 138.69Z" fill="#3D404B"/>
<path d="M57.2548 138.69L77.9456 118L76.7639 118L56.0731 138.69L57.2548 138.69Z" fill="#3D404B"/>
<path d="M67.9611 138.69L88.6519 118L87.4702 118L66.7794 138.69L67.9611 138.69Z" fill="#3D404B"/>
<path d="M78.6693 138.69L99.3601 118L98.1785 118L77.4877 138.69L78.6693 138.69Z" fill="#3D404B"/>
<path d="M89.3756 138.69L110.066 118L108.885 118L88.194 138.69L89.3756 138.69Z" fill="#3D404B"/>
<path d="M268.924 797.465L247.01 764.956L258.414 739.157L268.924 797.465ZM220.748 762.794L246.617 765.198L268.421 797.544L220.748 762.794ZM257.992 738.969L246.603 764.734L220.636 762.321L257.992 738.969ZM258.673 738L219.524 762.472L269.669 799L258.673 738Z" fill="#424550"/>
<path d="M72.9092 845.604L72.9092 850.171L50.0627 827.324L50.0627 822.757L72.9092 845.604ZM2.28035 870.538L6.7353 870.538L29.5826 893.385L25.1276 893.385L2.28035 870.538ZM67.0462 893.385L44.1989 870.538L48.9211 870.538L71.7676 893.385L67.0462 893.385ZM12.8841 870.538L35.7306 893.385L30.1534 893.385L7.30612 870.538L12.8841 870.538ZM60.8974 893.385L38.0501 870.538L43.6281 870.538L66.4754 893.385L60.8974 893.385ZM54.7486 893.385L31.9013 870.538L37.4793 870.538L60.3266 893.385L54.7486 893.385ZM48.599 893.385L25.7517 870.538L31.3305 870.538L54.177 893.385L48.599 893.385ZM42.4502 893.385L19.6037 870.538L25.1809 870.538L48.0282 893.385L42.4502 893.385ZM36.3014 893.385L13.4549 870.538L19.0329 870.538L41.8794 893.385L36.3014 893.385ZM72.9092 892.243L50.0627 869.397L50.0627 864.691L72.9092 887.538L72.9092 892.243ZM72.9092 886.967L50.0627 864.12L50.0627 858.558L72.9092 881.405L72.9092 886.967ZM72.9092 880.834L50.0627 857.987L50.0627 852.426L72.9092 875.272L72.9092 880.834ZM72.9092 874.702L50.0627 851.855L50.0627 846.293L72.9092 869.14L72.9092 874.702ZM72.9092 868.569L50.0627 845.722L50.0627 840.16L72.9092 863.007L72.9092 868.569ZM72.9092 862.437L50.0627 839.589L50.0627 834.028L72.9092 856.874L72.9092 862.437ZM72.9092 856.303L50.0627 833.457L50.0627 827.895L72.9092 850.742L72.9092 856.303ZM48.448 821.615L48.448 868.924L1.13874 868.924L1.13874 821.615L48.448 821.615ZM0.331384 820C-0.115083 820 -0.47597 820.362 -0.475969 820.808L-0.475967 869.731C-0.475967 869.836 -0.454167 869.941 -0.4138 870.039C-0.372625 870.138 -0.313694 870.228 -0.23861 870.302L24.2226 894.763C24.3736 894.915 24.5786 895 24.7934 895L73.7166 895C73.8215 895 73.9257 894.979 74.025 894.938C74.2228 894.856 74.3794 894.698 74.4618 894.501C74.5021 894.402 74.5239 894.298 74.5239 894.193L74.5239 845.269C74.5239 845.055 74.4383 844.85 74.2874 844.698L49.827 820.238C49.7519 820.163 49.6631 820.104 49.5638 820.062C49.4653 820.021 49.3603 820 49.2554 820L0.331384 820Z" fill="#383B46"/>
<path d="M34.0044 -9.17081L39.1782 -9.17081L13.2962 16.7103L8.12237 16.7103L34.0044 -9.17081ZM62.2516 70.8386L62.2516 65.7928L88.1318 39.9107L88.1318 44.9575L62.2516 70.8386ZM88.1318 -2.52904L62.2516 23.353L62.2516 18.0035L88.1318 -7.87757L88.1318 -2.52904ZM62.2516 58.8273L88.1318 32.9461L88.1318 39.2641L62.2516 65.1462L62.2516 58.8273ZM88.1318 4.43646L62.2516 30.3185L62.2516 23.9996L88.1318 -1.88244L88.1318 4.43646ZM88.1318 11.402L62.2516 37.2841L62.2516 30.9651L88.1318 5.08311L88.1318 11.402ZM88.1318 18.3676L62.2516 44.2496L62.2516 37.9307L88.1318 12.0486L88.1318 18.3676ZM88.1318 25.334L62.2516 51.2142L62.2516 44.8962L88.1318 19.0142L88.1318 25.334ZM88.1318 32.2995L62.2516 58.1807L62.2516 51.8608L88.1318 25.9806L88.1318 32.2995ZM86.8385 -9.17082L60.9583 16.7103L55.6263 16.7103L81.5083 -9.17082L86.8385 -9.17082ZM80.8617 -9.17082L54.9796 16.7103L48.6799 16.7103L74.562 -9.17082L80.8617 -9.17082ZM73.9153 -9.17082L48.0333 16.7103L41.7327 16.7103L67.6138 -9.17082L73.9153 -9.17082ZM66.9672 -9.17082L41.0861 16.7103L34.7845 16.7103L60.6666 -9.17082L66.9672 -9.17082ZM60.02 -9.17081L34.1379 16.7103L27.8382 16.7103L53.7193 -9.17081L60.02 -9.17081ZM53.0727 -9.17081L27.1916 16.7103L20.891 16.7103L46.7721 -9.17081L53.0727 -9.17081ZM46.1255 -9.17081L20.2443 16.7103L13.9428 16.7103L39.8248 -9.17081L46.1255 -9.17081ZM6.82912 18.5395L60.4224 18.5395L60.4224 72.1327L6.82912 72.1327L6.82912 18.5395ZM4.99994 73.0473C4.99994 73.5522 5.40968 73.9619 5.91453 73.9619L61.337 73.9619C61.4559 73.9619 61.5738 73.9372 61.6854 73.8906C61.7988 73.8449 61.8994 73.7772 61.9836 73.693L89.6939 45.9827C89.8649 45.8108 89.9609 45.5785 89.9609 45.3361L89.9609 -10.0854C89.9609 -10.2043 89.9372 -10.3232 89.8905 -10.4348C89.799 -10.6588 89.6198 -10.8363 89.3957 -10.9296C89.2841 -10.9762 89.1662 -11 89.0463 -11L33.6257 -11C33.3825 -11 33.1501 -10.9039 32.9791 -10.732L5.26882 16.9774C5.18376 17.0624 5.11701 17.163 5.07036 17.2755C5.02463 17.3871 4.99994 17.506 4.99994 17.6249L4.99994 73.0473Z" fill="#272A32"/>
<path d="M163.083 11.7258C163.083 10.9245 163.732 10.2765 164.531 10.2765C165.331 10.2765 165.979 10.9245 165.979 11.7258C165.979 12.5245 165.331 13.1738 164.531 13.1738C163.732 13.1738 163.083 12.5245 163.083 11.7258Z" fill="#3D404B"/>
<path d="M189.695 11.7258C189.695 10.9245 190.344 10.2765 191.144 10.2765C191.944 10.2765 192.592 10.9245 192.592 11.7258C192.592 12.5245 191.944 13.1738 191.144 13.1738C190.344 13.1738 189.695 12.5245 189.695 11.7258Z" fill="#3D404B"/>
<path d="M216.308 11.7258C216.308 10.9245 216.956 10.2765 217.756 10.2765C218.556 10.2765 219.204 10.9245 219.204 11.7258C219.204 12.5245 218.556 13.1738 217.756 13.1738C216.956 13.1738 216.308 12.5245 216.308 11.7258Z" fill="#3D404B"/>
<path d="M242.92 11.7258C242.92 10.9245 243.568 10.2765 244.37 10.2765C245.17 10.2765 245.818 10.9245 245.818 11.7258C245.818 12.5245 245.17 13.1738 244.37 13.1738C243.568 13.1738 242.92 12.5245 242.92 11.7258Z" fill="#3D404B"/>
<path d="M269.533 11.7258C269.533 10.9245 270.181 10.2765 270.981 10.2765C271.783 10.2765 272.431 10.9245 272.431 11.7258C272.431 12.5245 271.783 13.1738 270.981 13.1738C270.181 13.1738 269.533 12.5245 269.533 11.7258Z" fill="#3D404B"/>
<path d="M296.146 11.7258C296.146 10.9245 296.794 10.2765 297.594 10.2765C298.394 10.2765 299.042 10.9245 299.042 11.7258C299.042 12.5245 298.394 13.1738 297.594 13.1738C296.794 13.1738 296.146 12.5245 296.146 11.7258Z" fill="#3D404B"/>
<path d="M322.758 11.7258C322.758 10.9245 323.406 10.2765 324.208 10.2765C325.008 10.2765 325.656 10.9245 325.656 11.7258C325.656 12.5245 325.008 13.1738 324.208 13.1738C323.406 13.1738 322.758 12.5245 322.758 11.7258Z" fill="#3D404B"/>
<path d="M349.372 11.7258C349.372 10.9245 350.02 10.2765 350.82 10.2765C351.621 10.2765 352.269 10.9245 352.269 11.7258C352.269 12.5245 351.621 13.1738 350.82 13.1738C350.02 13.1738 349.372 12.5245 349.372 11.7258Z" fill="#3D404B"/>
<path d="M375.985 11.7258C375.985 10.9245 376.633 10.2765 377.433 10.2765C378.233 10.2765 378.881 10.9245 378.881 11.7258C378.881 12.5245 378.233 13.1738 377.433 13.1738C376.633 13.1738 375.985 12.5245 375.985 11.7258Z" fill="#3D404B"/>
<path d="M402.597 11.7258C402.597 10.9245 403.245 10.2765 404.045 10.2765C404.845 10.2765 405.495 10.9245 405.495 11.7258C405.495 12.5245 404.845 13.1738 404.045 13.1738C403.245 13.1738 402.597 12.5245 402.597 11.7258Z" fill="#3D404B"/>
<path d="M163.083 34.4007C163.083 33.6007 163.732 32.9527 164.531 32.9527C165.331 32.9527 165.979 33.6007 165.979 34.4007C165.979 35.1993 165.331 35.8486 164.531 35.8486C163.732 35.8486 163.083 35.1993 163.083 34.4007Z" fill="#3D404B"/>
<path d="M189.695 34.4007C189.695 33.6007 190.344 32.9527 191.144 32.9527C191.944 32.9527 192.592 33.6007 192.592 34.4007C192.592 35.1993 191.944 35.8486 191.144 35.8486C190.344 35.8486 189.695 35.1993 189.695 34.4007Z" fill="#3D404B"/>
<path d="M216.308 34.4007C216.308 33.6007 216.956 32.9527 217.756 32.9527C218.556 32.9527 219.204 33.6007 219.204 34.4007C219.204 35.1993 218.556 35.8486 217.756 35.8486C216.956 35.8486 216.308 35.1993 216.308 34.4007Z" fill="#3D404B"/>
<path d="M242.92 34.4007C242.92 33.6007 243.568 32.9527 244.37 32.9527C245.17 32.9527 245.818 33.6007 245.818 34.4007C245.818 35.1993 245.17 35.8486 244.37 35.8486C243.568 35.8486 242.92 35.1993 242.92 34.4007Z" fill="#3D404B"/>
<path d="M269.533 34.4007C269.533 33.6007 270.181 32.9527 270.981 32.9527C271.783 32.9527 272.431 33.6007 272.431 34.4007C272.431 35.1993 271.783 35.8486 270.981 35.8486C270.181 35.8486 269.533 35.1993 269.533 34.4007Z" fill="#3D404B"/>
<path d="M296.146 34.4007C296.146 33.6007 296.794 32.9527 297.594 32.9527C298.394 32.9527 299.042 33.6007 299.042 34.4007C299.042 35.1993 298.394 35.8486 297.594 35.8486C296.794 35.8486 296.146 35.1993 296.146 34.4007Z" fill="#3D404B"/>
<path d="M322.758 34.4007C322.758 33.6007 323.406 32.9527 324.208 32.9527C325.008 32.9527 325.656 33.6007 325.656 34.4007C325.656 35.1993 325.008 35.8486 324.208 35.8486C323.406 35.8486 322.758 35.1993 322.758 34.4007Z" fill="#3D404B"/>
<path d="M349.372 34.4007C349.372 33.6007 350.02 32.9527 350.82 32.9527C351.621 32.9527 352.269 33.6007 352.269 34.4007C352.269 35.1993 351.621 35.8486 350.82 35.8486C350.02 35.8486 349.372 35.1993 349.372 34.4007Z" fill="#3D404B"/>
<path d="M375.985 34.4007C375.985 33.6007 376.633 32.9527 377.433 32.9527C378.233 32.9527 378.881 33.6007 378.881 34.4007C378.881 35.1993 378.233 35.8486 377.433 35.8486C376.633 35.8486 375.985 35.1993 375.985 34.4007Z" fill="#3D404B"/>
<path d="M402.597 34.4007C402.597 33.6007 403.245 32.9527 404.045 32.9527C404.845 32.9527 405.495 33.6007 405.495 34.4007C405.495 35.1993 404.845 35.8486 404.045 35.8486C403.245 35.8486 402.597 35.1993 402.597 34.4007Z" fill="#3D404B"/>
<path d="M-2.61341 178.41C-2.61341 196.537 -17.3614 211.285 -35.4881 211.285C-53.6134 211.285 -68.3614 196.537 -68.3614 178.41C-68.3614 160.286 -53.6134 145.538 -35.4881 145.538C-17.3614 145.538 -2.61341 160.286 -2.61341 178.41ZM-71.0534 178.41C-71.0534 198.022 -55.1 213.977 -35.4881 213.977C-15.8774 213.977 0.0786126 198.022 0.0786117 178.41C0.0786109 158.799 -15.8774 142.846 -35.4881 142.846C-55.1001 142.846 -71.0534 158.799 -71.0534 178.41Z" fill="#3D404B"/>
<path d="M216.84 839L207.887 844.684L216.84 850.367L216.84 839Z" fill="#272A34"/>
<path d="M263.12 839L254.167 844.684L263.12 850.367L263.12 839Z" fill="#272A34"/>
<path d="M107.953 839L99 844.684L107.953 850.367L107.953 839Z" fill="#272A34"/>
<path d="M154.233 839L145.28 844.684L154.233 850.367L154.233 839Z" fill="#272A34"/>
<path d="M173.845 839L164.892 844.684L173.845 850.367L173.845 839Z" fill="#272A34"/>
<path d="M301.737 860.732C300.525 860.765 299.521 859.815 299.491 858.614C299.456 857.403 300.396 856.398 301.607 856.366C302.808 856.322 303.812 857.271 303.855 858.484C303.855 858.505 303.855 858.527 303.855 858.549C303.855 859.727 302.916 860.688 301.737 860.732ZM304.084 849.96C303.975 851.16 302.927 852.055 301.728 851.957C300.515 851.858 299.631 850.8 299.731 849.599C299.828 848.398 300.887 847.504 302.087 847.601C303.223 847.7 304.084 848.661 304.084 849.784C304.084 849.839 304.084 849.904 304.084 849.96ZM302.741 869.442C301.541 869.605 300.44 868.786 300.265 867.586C300.089 866.396 300.919 865.283 302.121 865.119C303.309 864.945 304.412 865.774 304.587 866.964C304.597 867.072 304.608 867.171 304.608 867.281C304.608 868.35 303.823 869.277 302.741 869.442ZM305.264 841.533L305.275 841.533C305.035 842.712 303.877 843.476 302.697 843.247C301.519 843.007 300.744 841.861 300.985 840.671C301.225 839.492 302.371 838.728 303.549 838.957C304.587 839.165 305.307 840.081 305.307 841.097C305.307 841.239 305.295 841.38 305.264 841.533ZM304.729 877.976C303.561 878.281 302.371 877.594 302.065 876.426C301.748 875.258 302.448 874.069 303.615 873.752C304.784 873.447 305.972 874.145 306.279 875.313C306.333 875.499 306.355 875.684 306.355 875.87C306.355 876.841 305.7 877.725 304.729 877.976ZM307.413 833.283C307.043 834.428 305.809 835.061 304.663 834.689C303.516 834.319 302.884 833.085 303.255 831.94C303.625 830.795 304.859 830.16 306.005 830.532C306.933 830.837 307.521 831.688 307.521 832.616C307.521 832.835 307.491 833.064 307.413 833.283ZM307.685 886.238C306.563 886.674 305.295 886.118 304.859 884.994C304.423 883.881 304.968 882.615 306.093 882.167C307.217 881.731 308.483 882.287 308.919 883.411C309.028 883.673 309.071 883.935 309.071 884.208C309.071 885.081 308.549 885.899 307.685 886.238ZM310.492 825.337C309.989 826.439 308.701 826.919 307.599 826.417C306.508 825.915 306.016 824.628 306.517 823.536C306.517 823.536 306.517 823.536 306.517 823.524C307.02 822.433 308.308 821.943 309.411 822.444C310.219 822.816 310.687 823.612 310.687 824.431C310.687 824.736 310.623 825.043 310.492 825.337ZM311.571 894.096C310.503 894.664 309.181 894.26 308.624 893.191C308.057 892.132 308.46 890.811 309.519 890.243C310.589 889.676 311.909 890.08 312.477 891.149C312.652 891.477 312.729 891.826 312.729 892.165C312.729 892.95 312.315 893.704 311.571 894.096ZM314.464 817.795L314.464 817.805C313.843 818.832 312.5 819.171 311.463 818.548C310.436 817.927 310.099 816.584 310.721 815.547C311.343 814.52 312.684 814.183 313.723 814.804C314.4 815.208 314.781 815.94 314.781 816.681C314.781 817.064 314.672 817.445 314.464 817.795ZM316.331 901.463C315.337 902.151 313.972 901.899 313.295 900.907C312.608 899.914 312.86 898.549 313.853 897.861C314.845 897.185 316.209 897.436 316.887 898.429C317.149 898.811 317.28 899.237 317.28 899.662C317.28 900.36 316.941 901.037 316.331 901.463ZM319.267 810.767C318.535 811.716 317.16 811.901 316.209 811.159C315.249 810.428 315.075 809.052 315.805 808.103C316.539 807.143 317.912 806.968 318.863 807.699C319.429 808.136 319.713 808.78 319.713 809.435C319.713 809.893 319.571 810.363 319.267 810.767ZM321.896 908.242C320.979 909.037 319.605 908.94 318.807 908.034C318.807 908.034 318.807 908.034 318.819 908.034C318.021 907.117 318.12 905.742 319.025 904.956C319.932 904.159 321.307 904.258 322.104 905.163C322.464 905.578 322.639 906.091 322.639 906.593C322.639 907.204 322.388 907.815 321.896 908.242ZM324.833 804.316C324.004 805.179 322.617 805.2 321.755 804.359C320.881 803.531 320.86 802.144 321.7 801.281C322.541 800.408 323.927 800.387 324.789 801.228C325.227 801.653 325.456 802.232 325.456 802.799C325.456 803.345 325.247 803.891 324.833 804.316ZM328.183 914.354C327.376 915.237 325.989 915.302 325.105 914.484C324.211 913.676 324.156 912.29 324.963 911.406C325.783 910.511 327.168 910.456 328.052 911.264C328.521 911.701 328.761 912.29 328.761 912.88C328.761 913.404 328.575 913.938 328.183 914.354ZM331.097 798.543C330.169 799.307 328.793 799.175 328.029 798.237C327.265 797.309 327.397 795.935 328.325 795.169C329.263 794.407 330.639 794.537 331.401 795.464C331.731 795.879 331.895 796.371 331.895 796.851C331.895 797.484 331.621 798.105 331.097 798.543ZM335.136 919.701C334.425 920.683 333.063 920.901 332.091 920.193C331.108 919.482 330.901 918.119 331.6 917.136C332.308 916.164 333.673 915.947 334.655 916.656C335.244 917.082 335.551 917.747 335.551 918.424C335.551 918.871 335.419 919.319 335.136 919.701ZM337.973 793.521C336.969 794.176 335.616 793.881 334.96 792.867C334.305 791.852 334.601 790.509 335.605 789.855C336.62 789.2 337.973 789.484 338.627 790.499C338.868 790.869 338.977 791.273 338.977 791.677C338.977 792.397 338.627 793.096 337.973 793.521ZM342.656 924.242C342.056 925.289 340.724 925.66 339.676 925.06C338.627 924.471 338.256 923.139 338.845 922.091C339.436 921.044 340.767 920.672 341.815 921.262L341.827 921.262C342.535 921.665 342.928 922.408 342.928 923.172C342.928 923.532 342.841 923.903 342.656 924.242ZM345.384 789.308C344.303 789.844 342.993 789.407 342.459 788.327C341.924 787.247 342.36 785.936 343.441 785.401C343.441 785.401 343.441 785.401 343.452 785.401C344.532 784.867 345.832 785.303 346.365 786.384C346.519 786.7 346.596 787.028 346.596 787.355C346.596 788.152 346.148 788.927 345.384 789.308ZM350.633 927.875C350.164 928.989 348.888 929.513 347.773 929.044C346.661 928.574 346.136 927.286 346.607 926.184C347.075 925.071 348.363 924.547 349.465 925.016C350.305 925.365 350.808 926.173 350.808 927.025C350.808 927.309 350.753 927.603 350.633 927.875ZM353.22 785.98C352.084 786.384 350.831 785.795 350.427 784.659C350.023 783.524 350.612 782.28 351.747 781.865C352.883 781.461 354.125 782.051 354.529 783.185C354.617 783.427 354.661 783.677 354.661 783.928C354.661 784.824 354.105 785.653 353.22 785.98ZM358.983 930.583C358.644 931.739 357.433 932.394 356.276 932.067C355.12 931.717 354.453 930.506 354.792 929.36C355.129 928.192 356.343 927.537 357.499 927.865C358.448 928.148 359.069 929.022 359.069 929.971C359.069 930.168 359.037 930.375 358.983 930.583ZM361.384 783.568C360.216 783.841 359.037 783.109 358.764 781.931C358.492 780.764 359.223 779.584 360.392 779.312C361.569 779.039 362.736 779.769 363.011 780.937C363.053 781.112 363.076 781.276 363.076 781.439C363.076 782.433 362.389 783.328 361.384 783.568ZM367.583 932.296C367.376 933.486 366.252 934.282 365.063 934.086C363.872 933.878 363.076 932.754 363.272 931.565C363.48 930.375 364.604 929.578 365.793 929.786C366.862 929.96 367.617 930.888 367.617 931.936C367.617 932.056 367.605 932.176 367.583 932.296ZM369.777 782.105C368.576 782.247 367.496 781.385 367.353 780.184C367.224 778.984 368.074 777.904 369.274 777.772C370.476 777.631 371.556 778.481 371.686 779.683C371.698 779.769 371.709 779.857 371.709 779.933C371.709 781.036 370.891 781.975 369.777 782.105ZM376.325 933.038C376.249 934.239 375.224 935.156 374.022 935.09C372.81 935.025 371.895 933.999 371.959 932.798C372.025 931.586 373.064 930.67 374.262 930.735C375.419 930.8 376.325 931.761 376.325 932.918C376.325 932.951 376.325 932.995 376.325 933.038ZM378.444 781.604C378.409 781.604 378.389 781.604 378.356 781.604C378.333 781.604 378.312 781.604 378.28 781.604C377.079 781.615 376.096 780.632 376.096 779.432C376.096 778.22 377.068 777.248 378.28 777.239C378.301 777.239 378.333 777.239 378.356 777.239C378.389 777.239 378.409 777.239 378.444 777.239C379.643 777.239 380.625 778.22 380.625 779.421C380.625 780.632 379.643 781.604 378.444 781.604ZM383.026 935.09C383.026 935.09 383.026 935.09 383.037 935.09C381.826 935.156 380.8 934.239 380.724 933.027C380.659 931.826 381.574 930.8 382.786 930.724C383.988 930.659 385.012 931.575 385.089 932.776C385.089 932.82 385.089 932.864 385.089 932.908C385.089 934.054 384.195 935.013 383.026 935.09ZM389.357 780.163C389.226 781.363 388.145 782.225 386.945 782.084C385.744 781.953 384.895 780.872 385.024 779.672C385.155 778.471 386.245 777.609 387.437 777.751C388.549 777.871 389.379 778.82 389.379 779.912C389.379 779.999 389.368 780.075 389.357 780.163ZM391.988 934.054C390.797 934.26 389.674 933.463 389.465 932.274C389.259 931.084 390.056 929.96 391.244 929.753C392.436 929.545 393.56 930.343 393.767 931.532C393.789 931.663 393.8 931.783 393.8 931.904C393.8 932.951 393.047 933.878 391.988 934.054ZM397.957 781.897C397.684 783.067 396.516 783.797 395.338 783.524C394.171 783.252 393.44 782.084 393.712 780.905C393.973 779.737 395.152 779.005 396.332 779.279C397.336 779.508 398.012 780.403 398.012 781.396C398.012 781.56 398.001 781.724 397.957 781.897ZM400.773 932.012C399.616 932.35 398.405 931.695 398.067 930.539C397.719 929.382 398.383 928.171 399.54 927.821C400.696 927.483 401.908 928.148 402.247 929.305C402.312 929.513 402.335 929.721 402.335 929.916C402.335 930.866 401.724 931.728 400.773 932.012ZM406.307 784.605C405.903 785.74 404.659 786.329 403.512 785.925C402.377 785.521 401.789 784.267 402.192 783.131C402.596 781.996 403.85 781.407 404.986 781.811C405.881 782.128 406.437 782.968 406.437 783.863C406.437 784.113 406.395 784.353 406.307 784.605ZM409.265 928.978C408.152 929.448 406.874 928.924 406.395 927.821C405.936 926.708 406.449 925.431 407.562 924.951C408.664 924.481 409.953 925.005 410.421 926.119C410.543 926.391 410.596 926.686 410.596 926.97C410.596 927.81 410.095 928.618 409.265 928.978ZM414.285 788.251C413.749 789.331 412.452 789.779 411.36 789.244C410.28 788.709 409.844 787.399 410.367 786.319C410.901 785.237 412.21 784.791 413.291 785.325C414.068 785.708 414.513 786.483 414.513 787.291C414.513 787.607 414.437 787.933 414.285 788.251ZM417.341 924.984C416.293 925.584 414.961 925.213 414.372 924.164C413.773 923.117 414.143 921.786 415.191 921.185C416.238 920.596 417.569 920.967 418.16 922.004C418.356 922.354 418.456 922.724 418.456 923.084C418.456 923.848 418.05 924.58 417.341 924.984ZM421.793 792.791C421.14 793.805 419.796 794.089 418.783 793.435C417.768 792.791 417.472 791.437 418.125 790.421C418.783 789.407 420.135 789.112 421.14 789.768C421.793 790.183 422.144 790.892 422.144 791.612C422.144 792.016 422.033 792.419 421.793 792.791ZM424.916 920.094C423.944 920.804 422.579 920.596 421.871 919.625C421.161 918.642 421.369 917.278 422.349 916.568C423.322 915.859 424.686 916.078 425.396 917.049C425.68 917.442 425.81 917.889 425.81 918.336C425.81 919.002 425.505 919.669 424.916 920.094ZM428.747 798.149C427.983 799.077 426.608 799.219 425.669 798.455C424.74 797.691 424.6 796.316 425.364 795.377C426.126 794.449 427.503 794.308 428.441 795.072C428.964 795.508 429.237 796.129 429.237 796.763C429.237 797.243 429.073 797.735 428.747 798.149ZM431.891 914.386C431.007 915.204 429.62 915.138 428.8 914.254C427.993 913.371 428.048 911.985 428.943 911.177C429.828 910.359 431.203 910.412 432.02 911.297C432.401 911.722 432.6 912.247 432.6 912.782C432.6 913.371 432.359 913.949 431.891 914.386ZM435.033 804.261C434.171 805.101 432.785 805.08 431.944 804.217C431.104 803.345 431.125 801.969 431.988 801.129C432.849 800.288 434.236 800.311 435.076 801.172C435.492 801.599 435.698 802.144 435.698 802.689C435.698 803.257 435.469 803.824 435.033 804.261ZM438.177 907.914C437.38 908.831 436.005 908.928 435.086 908.132C434.181 907.346 434.083 905.971 434.869 905.054C435.656 904.148 437.041 904.05 437.948 904.836C438.449 905.272 438.7 905.873 438.7 906.484C438.7 906.997 438.525 907.499 438.177 907.914ZM440.588 811.039C439.638 811.781 438.264 811.607 437.532 810.647C436.789 809.696 436.965 808.321 437.925 807.589C438.874 806.848 440.249 807.023 440.981 807.984C441.297 808.376 441.44 808.845 441.44 809.315C441.44 809.969 441.145 810.613 440.588 811.039ZM443.677 900.776C443 901.769 441.636 902.02 440.643 901.344C439.65 900.666 439.398 899.302 440.074 898.309C440.752 897.315 442.117 897.065 443.11 897.742C443.721 898.167 444.06 898.844 444.06 899.542C444.06 899.968 443.938 900.394 443.677 900.776ZM445.347 818.417C444.309 819.04 442.968 818.701 442.345 817.675C441.724 816.637 442.052 815.296 443.076 814.673C444.114 814.052 445.456 814.389 446.077 815.416C446.296 815.765 446.395 816.157 446.395 816.54C446.395 817.283 446.024 818.003 445.347 818.417ZM448.338 893.049C447.769 894.119 446.449 894.522 445.391 893.965C444.321 893.398 443.905 892.077 444.473 891.019C445.041 889.948 446.361 889.545 447.421 890.101C448.162 890.494 448.588 891.258 448.588 892.033C448.588 892.383 448.512 892.732 448.338 893.049ZM449.221 826.275C448.12 826.777 446.832 826.297 446.331 825.195C445.828 824.103 446.307 822.805 447.4 822.303C448.501 821.8 449.789 822.292 450.301 823.383C450.433 823.677 450.498 823.983 450.498 824.289C450.498 825.119 450.019 825.904 449.221 826.275ZM452.081 884.851C451.645 885.965 450.379 886.522 449.255 886.096C448.129 885.648 447.573 884.394 448.01 883.258L448.01 883.27C448.447 882.145 449.713 881.588 450.837 882.025C451.698 882.352 452.234 883.182 452.234 884.055C452.234 884.317 452.179 884.59 452.081 884.851ZM452.169 834.537C451.022 834.908 449.789 834.275 449.419 833.14L449.419 833.129C449.047 831.984 449.679 830.761 450.826 830.379C451.972 830.008 453.205 830.641 453.576 831.787C453.641 832.005 453.674 832.235 453.674 832.463C453.674 833.38 453.096 834.232 452.169 834.537ZM454.864 876.263C454.56 877.43 453.368 878.128 452.201 877.823C451.033 877.518 450.336 876.328 450.64 875.16C450.947 873.993 452.135 873.294 453.303 873.599C454.286 873.861 454.941 874.745 454.941 875.706C454.941 875.891 454.907 876.076 454.864 876.263ZM454.155 843.083C452.976 843.312 451.819 842.549 451.589 841.37C451.349 840.191 452.114 839.033 453.292 838.795C454.472 838.565 455.628 839.328 455.868 840.508C455.891 840.649 455.91 840.792 455.91 840.944C455.91 841.959 455.192 842.865 454.155 843.083ZM456.643 867.422C456.469 868.623 455.365 869.452 454.177 869.277C452.976 869.103 452.146 868 452.321 866.811C452.485 865.622 453.586 864.792 454.789 864.955C455.88 865.108 456.665 866.047 456.665 867.116C456.665 867.215 456.655 867.323 456.643 867.422ZM455.148 851.793C453.948 851.891 452.9 851.007 452.791 849.807C452.68 848.606 453.576 847.547 454.777 847.438C455.977 847.339 457.036 848.235 457.145 849.435C457.145 849.435 457.145 849.435 457.133 849.435C457.145 849.49 457.145 849.555 457.145 849.621C457.145 850.745 456.284 851.695 455.148 851.793ZM457.397 858.44C457.362 859.651 456.359 860.601 455.16 860.557C453.948 860.524 452.997 859.52 453.031 858.32C453.064 857.119 454.068 856.169 455.279 856.202C456.457 856.235 457.397 857.206 457.397 858.385C457.397 858.407 457.397 858.418 457.397 858.44Z" fill="#383B46"/>
<path d="M287.028 26.2942C287.028 103.469 349.815 166.256 426.991 166.256C504.167 166.256 566.953 103.469 566.953 26.2942C566.953 -50.8804 504.167 -113.667 426.991 -113.667C349.815 -113.667 287.028 -50.8804 287.028 26.2942ZM568.286 26.2942C568.286 104.204 504.901 167.589 426.991 167.589C349.08 167.589 285.695 104.204 285.695 26.2942C285.695 -51.6164 349.08 -115 426.991 -115C504.901 -115 568.286 -51.6165 568.286 26.2942Z" fill="#262832"/>
<path d="M416.78 206.05L402.711 206.05L402.711 220.121L416.78 220.121L416.78 206.05ZM401.966 205.306L417.524 205.306L417.524 220.865L401.966 220.865L401.966 205.306Z" fill="#383B46"/>
<path d="M401.966 220.866L387.896 220.866L387.896 234.934L401.966 234.934L401.966 220.866ZM387.152 220.122L402.71 220.122L402.71 235.679L387.152 235.679L387.152 220.122Z" fill="#383B46"/>
<path d="M387.152 220.866L373.083 220.866L373.083 234.934L387.152 234.934L387.152 220.866ZM372.339 220.122L387.896 220.122L387.896 235.679L372.339 235.679L372.339 220.122Z" fill="#383B46"/>
<path d="M401.966 235.678L387.896 235.678L387.896 249.748L401.966 249.748L401.966 235.678ZM387.152 234.934L402.71 234.934L402.71 250.492L387.152 250.492L387.152 234.934Z" fill="#383B46"/>
<path d="M401.966 206.05L387.896 206.05L387.896 220.121L401.966 220.121L401.966 206.05ZM387.152 205.306L402.71 205.306L402.71 220.865L387.152 220.865L387.152 205.306Z" fill="#383B46"/>
<path d="M387.152 206.05L373.083 206.05L373.083 220.121L387.152 220.121L387.152 206.05ZM372.339 205.306L387.896 205.306L387.896 220.865L372.339 220.865L372.339 205.306Z" fill="#383B46"/>
<path d="M372.339 206.05L358.269 206.05L358.269 220.121L372.339 220.121L372.339 206.05ZM357.524 205.306L373.083 205.306L373.083 220.865L357.524 220.865L357.524 205.306Z" fill="#383B46"/>
<path d="M416.78 220.866L402.711 220.866L402.711 234.934L416.78 234.934L416.78 220.866ZM401.966 220.122L417.524 220.122L417.524 235.679L401.966 235.679L401.966 220.122Z" fill="#383B46"/>
<path d="M416.78 235.678L402.711 235.678L402.711 249.748L416.78 249.748L416.78 235.678ZM401.966 234.934L417.524 234.934L417.524 250.492L401.966 250.492L401.966 234.934Z" fill="#383B46"/>
<path d="M416.78 250.492L402.711 250.492L402.711 264.562L416.78 264.562L416.78 250.492ZM401.966 249.748L417.524 249.748L417.524 265.307L401.966 265.307L401.966 249.748Z" fill="#383B46"/>
<path d="M438.626 443.697L438.626 365.467L466.522 337.573L466.522 415.245L438.626 443.697ZM358.137 444.55L358.137 366.051L436.635 366.051L436.635 444.55L358.137 444.55ZM387.443 336.163L465.114 336.163L437.219 364.059L358.991 364.059L387.443 336.163ZM356.145 364.059L356.145 446.542L438.626 446.542L468.514 416.071L468.514 334.171L386.617 334.171L356.145 364.059Z" fill="#272A34"/>
<path d="M378.728 142.853L272 142.853V135L378.728 135V142.853Z" fill="#272A32"/>
<path d="M226.501 121.225C224.583 121.225 222.665 120.63 220.878 119.441C217.759 117.363 214.182 117.363 211.064 119.441C207.49 121.82 203.392 121.82 199.818 119.441C196.699 117.363 193.122 117.363 190.003 119.441C189.706 119.637 189.306 119.558 189.108 119.261C188.911 118.965 188.991 118.564 189.288 118.366C192.861 115.986 196.96 115.986 200.533 118.366C203.652 120.444 207.229 120.443 210.348 118.366C213.921 115.986 218.02 115.986 221.594 118.366C224.712 120.443 228.29 120.443 231.409 118.366C234.982 115.986 239.081 115.987 242.654 118.366C242.951 118.564 243.031 118.965 242.833 119.261C242.635 119.558 242.235 119.637 241.939 119.441C238.82 117.364 235.243 117.363 232.124 119.441C230.337 120.63 228.419 121.225 226.501 121.225Z" fill="#24262F"/>
<path d="M226.501 111.032C224.583 111.032 222.665 110.437 220.878 109.247C217.759 107.17 214.182 107.17 211.064 109.247C207.49 111.627 203.392 111.627 199.818 109.247C196.699 107.17 193.122 107.17 190.003 109.247C189.706 109.444 189.306 109.365 189.108 109.067C188.911 108.771 188.991 108.37 189.288 108.172C192.861 105.793 196.96 105.793 200.533 108.172C203.652 110.25 207.229 110.25 210.348 108.172C213.921 105.793 218.02 105.793 221.594 108.172C224.712 110.25 228.29 110.25 231.409 108.172C234.982 105.793 239.081 105.794 242.654 108.172C242.951 108.37 243.031 108.771 242.833 109.067C242.635 109.365 242.235 109.444 241.939 109.247C238.82 107.171 235.243 107.17 232.124 109.247C230.337 110.437 228.419 111.032 226.501 111.032Z" fill="#24262F"/>
<path d="M226.501 100.838C224.583 100.838 222.665 100.243 220.878 99.0525C217.759 96.9759 214.182 96.9759 211.064 99.0525C207.49 101.433 203.392 101.433 199.818 99.0525C196.699 96.9767 193.122 96.9767 190.003 99.0525C189.706 99.2499 189.306 99.1695 189.108 98.8731C188.911 98.5766 188.991 98.1761 189.288 97.978C192.861 95.5985 196.96 95.5985 200.533 97.978C203.652 100.056 207.229 100.055 210.348 97.978C213.921 95.5985 218.02 95.5985 221.594 97.978C224.712 100.055 228.29 100.055 231.409 97.978C234.982 95.5985 239.081 95.5992 242.654 97.978C242.951 98.1761 243.031 98.5766 242.833 98.8731C242.635 99.1695 242.235 99.2499 241.939 99.0525C238.82 96.9767 235.243 96.9767 232.124 99.0525C230.337 100.243 228.419 100.838 226.501 100.838Z" fill="#24262F"/>
<path d="M226.501 90.6438C224.583 90.6438 222.665 90.048 220.878 88.8586C217.759 86.782 214.182 86.782 211.064 88.8586C207.49 91.2388 203.392 91.2388 199.818 88.8586C196.699 86.7828 193.122 86.7828 190.003 88.8586C189.706 89.056 189.306 88.9756 189.108 88.6792C188.911 88.3827 188.991 87.9822 189.288 87.7841C192.861 85.4053 196.96 85.4053 200.533 87.7841C203.652 89.8621 207.229 89.8614 210.348 87.7841C213.921 85.4053 218.02 85.4053 221.594 87.7841C224.712 89.8614 228.29 89.8614 231.409 87.7841C234.982 85.4053 239.081 85.4053 242.654 87.7841C242.951 87.9822 243.031 88.3827 242.833 88.6792C242.635 88.9756 242.235 89.056 241.939 88.8586C238.82 86.7828 235.243 86.7828 232.124 88.8586C230.337 90.048 228.419 90.6438 226.501 90.6438Z" fill="#24262F"/>
<path d="M92.0007 288.155L92.0007 288.663L-18.9999 288.663L-18.9999 288.155L92.0007 288.155Z" fill="#272A34"/>
<path d="M92.0007 271.791L92.0007 272.299L-18.9999 272.299L-18.9999 271.791L92.0007 271.791Z" fill="#272A34"/>
<path d="M92.0007 255.428L92.0007 255.936L-18.9999 255.936L-18.9999 255.428L92.0007 255.428Z" fill="#272A34"/>
<path d="M92.0007 239.064L92.0007 239.572L-18.9999 239.572L-18.9999 239.064L92.0007 239.064Z" fill="#272A34"/>
<path d="M92.0007 222.702L92.0007 223.209L-18.9999 223.209L-18.9999 222.702L92.0007 222.702Z" fill="#272A34"/>
<path d="M92.0007 206.338L92.0007 206.846L-18.9999 206.846L-18.9999 206.338L92.0007 206.338Z" fill="#272A34"/>
<path d="M12.2092 192L12.2092 303L11.7019 303L11.7019 192L12.2092 192Z" fill="#272A34"/>
<path d="M28.5725 192L28.5725 303L28.0652 303L28.0651 192L28.5725 192Z" fill="#272A34"/>
<path d="M44.9363 192L44.9363 303L44.4282 303L44.4282 192L44.9363 192Z" fill="#272A34"/>
<path d="M61.2996 192L61.2996 303L60.7915 303L60.7915 192L61.2996 192Z" fill="#272A34"/>
<path d="M77.6626 192L77.6626 303L77.1552 303L77.1552 192L77.6626 192Z" fill="#272A34"/>
<path d="M84.4254 272.046C84.4254 275.915 81.2778 279.062 77.4091 279.062C73.5405 279.062 70.3935 275.915 70.3935 272.046C70.3935 268.177 73.5405 265.03 77.4091 265.03C81.2778 265.03 84.4254 268.177 84.4254 272.046ZM69.0011 272.046C69.0011 276.683 72.7725 280.454 77.4091 280.454C82.0457 280.454 85.8179 276.683 85.8179 272.046C85.8179 267.41 82.0457 263.638 77.4091 263.638C72.7725 263.638 69.0011 267.41 69.0011 272.046Z" fill="#3D404B"/>
<path d="M-84.1068 405.69C-84.6361 406.348 -85.1521 407.01 -85.6575 407.678L25.3959 518.73C26.0639 518.225 26.7279 517.71 27.3826 517.181L-84.1068 405.69Z" fill="#272A32"/>
<path d="M-98.3653 432.819C-98.6373 433.739 -98.8866 434.666 -99.1266 435.594L-2.52122 532.199C-1.59322 531.961 -0.666582 531.71 0.253418 531.437L-98.3653 432.819Z" fill="#272A32"/>
<path d="M-89.8294 413.763C-90.2827 414.496 -90.7214 415.236 -91.1494 415.98L17.092 524.222C17.8373 523.795 18.576 523.356 19.3093 522.903L-89.8294 413.763Z" fill="#272A32"/>
<path d="M-94.62 422.769C-94.9907 423.587 -95.3467 424.41 -95.6867 425.239L7.83462 528.761C8.66262 528.419 9.48529 528.063 10.304 527.693L-94.62 422.769Z" fill="#272A32"/>
<path d="M-78.4161 399.355C-78.7121 399.651 -78.9974 399.952 -79.2881 400.25L32.8226 512.36C33.1212 512.071 33.4212 511.783 33.7186 511.488C34.0132 511.192 34.2999 510.891 34.5906 510.592L-77.5201 398.482C-77.8187 398.772 -78.1188 399.06 -78.4161 399.355Z" fill="#272A32"/>
<path d="M-16.9081 376.321C-18.1427 376.237 -19.3774 376.18 -20.6134 376.153L56.9199 453.687C56.8946 452.452 56.8373 451.216 56.7519 449.981L-16.9081 376.321Z" fill="#272A32"/>
<path d="M-30.4734 376.551C-31.5268 376.659 -32.5787 376.785 -33.6267 376.934L56.1386 466.699C56.2893 465.651 56.4132 464.599 56.5212 463.546L-30.4734 376.551Z" fill="#272A32"/>
<path d="M-0.138769 379.295C-1.71477 378.836 -3.3041 378.427 -4.90143 378.07L55.0039 437.974C54.6452 436.376 54.2359 434.79 53.7786 433.211L-0.138769 379.295Z" fill="#272A32"/>
<path d="M45.9734 415.148C42.6467 409.512 38.5614 404.198 33.7187 399.355C28.8747 394.512 23.5614 390.427 17.924 387.099L45.9734 415.148Z" fill="#272A32"/>
<path d="M-61.7894 386.622C-62.5347 387.048 -63.2734 387.487 -64.0067 387.94L45.1319 497.079C45.5853 496.347 46.0239 495.607 46.4519 494.862L-61.7894 386.622Z" fill="#272A32"/>
<path d="M-70.0933 392.114C-70.7613 392.619 -71.4253 393.134 -72.0799 393.663L39.4094 505.152C39.9388 504.498 40.4547 503.834 40.9587 503.166L-70.0933 392.114Z" fill="#272A32"/>
<path d="M-42.1761 378.643C-43.1055 378.883 -44.0308 379.133 -44.9508 379.406L53.6679 478.023C53.9399 477.103 54.1892 476.178 54.4292 475.249L-42.1761 378.643Z" fill="#272A32"/>
<path d="M-52.5321 382.084C-53.3601 382.424 -54.184 382.781 -55.0014 383.15L49.9226 488.074C50.2919 487.257 50.6493 486.433 50.9893 485.605L-52.5321 382.084Z" fill="#272A32"/>
<path d="M343.028 649.026L343.028 668.108L323.947 668.108L323.947 649.026L343.028 649.026Z" fill="#272A32"/>
<path d="M392.7 649.693L374.952 649.693L374.952 667.441L392.7 667.441L392.7 649.693ZM373.619 648.36L394.033 648.36L394.033 668.774L373.619 668.774L373.619 648.36Z" fill="#272A32"/>
<path d="M16.1909 705.997L13.2882 705.997L13.2882 636.381L16.1909 636.381L16.1909 705.997Z" fill="#272A32"/>
<path d="M16.1909 591.203L13.2882 591.203L13.2882 574.694L16.1909 574.694L16.1909 591.203Z" fill="#272A32"/>
<path d="M393.873 415.703L396.776 415.703L396.776 485.319L393.873 485.319L393.873 415.703Z" fill="#272A32"/>
<path d="M435.258 597.236L438.714 597.236L416.096 574.618L438.714 552L435.258 552L412.64 574.618L435.258 597.236Z" fill="#24262F"/>
<path d="M362 596.517L362.719 597.236L366.176 597.236L362 593.06L362 596.517Z" fill="#24262F"/>
<path d="M362 586.154L373.082 597.236L376.539 597.236L362 582.698L362 586.154Z" fill="#24262F"/>
<path d="M362 575.792L383.444 597.236L386.901 597.236L364.283 574.618L386.901 552L383.444 552L362 573.445L362 575.792Z" fill="#24262F"/>
<path d="M362 566.539L376.539 552L373.082 552L362 563.082L362 566.539Z" fill="#24262F"/>
<path d="M362 556.177L366.176 552L362.719 552L362 552.72L362 556.177Z" fill="#24262F"/>
<path d="M414.532 597.236L417.989 597.236L395.371 574.618L417.989 552L414.532 552L391.914 574.618L414.532 597.236Z" fill="#24262F"/>
<path d="M424.894 597.236L428.352 597.236L405.734 574.618L428.352 552L424.894 552L402.276 574.618L424.894 597.236Z" fill="#24262F"/>
<path d="M393.807 597.236L397.264 597.236L374.645 574.618L397.264 552L393.807 552L371.189 574.618L393.807 597.236Z" fill="#24262F"/>
<path d="M404.169 597.236L407.626 597.236L385.008 574.618L407.626 552L404.169 552L381.551 574.618L404.169 597.236Z" fill="#24262F"/>
<path d="M327.555 188.883C327.555 189.924 328.397 190.766 329.437 190.766C330.477 190.766 331.32 189.924 331.32 188.883C331.32 187.844 330.477 187 329.437 187C328.397 187 327.555 187.844 327.555 188.883Z" fill="#32353F"/>
<path d="M303 188.883C303 189.924 303.841 190.766 304.883 190.766C305.921 190.766 306.764 189.924 306.764 188.883C306.764 187.844 305.921 187 304.883 187C303.841 187 303 187.844 303 188.883Z" fill="#32353F"/>
<path d="M327.555 213.226C327.555 214.264 328.397 215.108 329.437 215.108C330.477 215.108 331.32 214.264 331.32 213.226C331.32 212.186 330.477 211.343 329.437 211.343C328.397 211.343 327.555 212.186 327.555 213.226Z" fill="#32353F"/>
<path d="M303 213.226C303 214.264 303.841 215.108 304.883 215.108C305.921 215.108 306.764 214.264 306.764 213.226C306.764 212.186 305.921 211.343 304.883 211.343C303.841 211.343 303 212.186 303 213.226Z" fill="#32353F"/>
<path d="M327.555 237.569C327.555 238.608 328.397 239.45 329.437 239.45C330.477 239.45 331.32 238.608 331.32 237.569C331.32 236.529 330.477 235.686 329.437 235.686C328.397 235.686 327.555 236.529 327.555 237.569Z" fill="#32353F"/>
<path d="M303 237.569C303 238.608 303.841 239.45 304.883 239.45C305.921 239.45 306.764 238.608 306.764 237.569C306.764 236.529 305.921 235.686 304.883 235.686C303.841 235.686 303 236.529 303 237.569Z" fill="#32353F"/>
<path d="M327.555 261.91C327.555 262.95 328.397 263.793 329.437 263.793C330.477 263.793 331.32 262.95 331.32 261.91C331.32 260.87 330.477 260.028 329.437 260.028C328.397 260.028 327.555 260.87 327.555 261.91Z" fill="#32353F"/>
<path d="M303 261.91C303 262.95 303.841 263.793 304.883 263.793C305.921 263.793 306.764 262.95 306.764 261.91C306.764 260.87 305.921 260.028 304.883 260.028C303.841 260.028 303 260.87 303 261.91Z" fill="#32353F"/>
<path d="M327.555 286.252C327.555 287.291 328.397 288.135 329.437 288.135C330.477 288.135 331.32 287.291 331.32 286.252C331.32 285.212 330.477 284.369 329.437 284.369C328.397 284.369 327.555 285.212 327.555 286.252Z" fill="#32353F"/>
<path d="M48 595.28L53.6827 604.234L59.3667 595.28L48 595.28Z" fill="#24262F"/>
<path d="M48 549L53.6827 557.953L59.3667 549L48 549Z" fill="#24262F"/>
<path d="M48 704.167L53.6827 713.12L59.3667 704.167L48 704.167Z" fill="#24262F"/>
<path d="M48 657.886L53.6827 666.84L59.3667 657.886L48 657.886Z" fill="#24262F"/>
<path d="M48 638.273L53.6827 647.228L59.3667 638.273L48 638.273Z" fill="#24262F"/>
</g>
<defs>
<clipPath id="clip0_2632_5904">
<rect width="414" height="896" fill="white"/>
</clipPath>
</defs>
</svg>
