<svg width="414" height="896" viewBox="0 0 414 896" fill="none" xmlns="http://www.w3.org/2000/svg">
<g clip-path="url(#clip0_2546_5838)">
<rect width="414" height="896" fill="#FBFBFD"/>
<path d="M34.7066 635.759C34.7066 657.829 16.8225 675.713 -5.23745 675.713C-27.2988 675.713 -45.1814 657.829 -45.1814 635.759C-45.1814 613.699 -27.2988 595.815 -5.23745 595.815C16.8225 595.815 34.7066 613.699 34.7066 635.759V635.759ZM-54.9867 635.759C-54.9867 663.193 -32.6708 685.519 -5.23745 685.519C22.1959 685.519 44.5212 663.193 44.5212 635.759C44.5212 608.325 22.1959 586.011 -5.23745 586.011C-32.6708 586.011 -54.9867 608.325 -54.9867 635.759Z" fill="#E7E7FA"/>
<path d="M310.875 675.768C317.073 675.768 322.099 680.793 322.099 686.992C322.099 693.192 317.073 698.216 310.875 698.216C304.676 698.216 299.649 693.192 299.649 686.992C299.649 680.793 304.676 675.768 310.875 675.768Z" fill="#F0F0F8"/>
<path d="M395.127 538C402.583 538 408.628 544.044 408.628 551.5C408.628 558.956 402.583 565 395.127 565C387.672 565 381.628 558.956 381.628 551.5C381.628 544.044 387.672 538 395.127 538Z" fill="#F0F0F8"/>
<path d="M285.88 994.229L176.587 884.936C152.084 860.434 152.084 820.707 176.587 796.203C201.089 771.7 240.816 771.7 265.319 796.203L315.096 845.98C325.853 856.738 343.295 856.738 354.052 845.98C364.809 835.223 364.809 817.782 354.052 807.025L343.231 796.203C321.119 774.091 321.119 738.24 343.231 716.128C365.343 694.016 401.195 694.016 423.306 716.128L467.673 760.494C472.453 765.274 480.206 765.274 484.987 760.494C489.768 755.713 489.768 747.961 484.987 743.181L376.776 634.971C357.652 615.845 357.652 584.839 376.776 565.715C395.9 546.591 426.906 546.591 446.03 565.715L475.248 594.932C479.432 599.116 486.214 599.116 490.397 594.932C494.58 590.748 494.58 583.967 490.397 579.783L487.975 577.36C436.721 526.107 436.721 443.008 487.975 391.753L538.009 341.718L538.009 1152.22C538.009 1152.22 295.619 984.489 285.88 994.229" fill="#F4F4FD"/>
<path d="M125.847 699.287C124.32 697.76 124.32 695.287 125.847 693.761L137.609 681.997C139.136 680.472 141.609 680.472 143.135 681.997C144.66 683.524 144.66 685.997 143.135 687.524L131.371 699.287C129.845 700.812 127.372 700.812 125.847 699.287" fill="#F0F0F8"/>
<path d="M125.847 681.997C127.372 680.472 129.845 680.472 131.371 681.997L143.135 693.761C144.66 695.287 144.66 697.76 143.135 699.287C141.609 700.812 139.136 700.812 137.609 699.287L125.847 687.524C124.32 685.997 124.32 683.524 125.847 681.997" fill="#F0F0F8"/>
<path d="M25.4933 857.641C33.292 857.641 39.616 863.964 39.616 871.762C39.616 879.562 33.292 885.885 25.4933 885.885C17.6946 885.885 11.3707 879.562 11.3707 871.762C11.3707 863.964 17.6946 857.641 25.4933 857.641Z" fill="#F0F0F8"/>
<path d="M68.0866 880.197C70.4093 880.197 72.2933 882.081 72.2933 884.404C72.2933 886.728 70.4093 888.612 68.0866 888.612C65.7613 888.612 63.8773 886.728 63.8773 884.404C63.8773 882.081 65.7613 880.197 68.0866 880.197Z" fill="#E6E6F1"/>
<path d="M90.0706 880.197C92.3946 880.197 94.2786 882.081 94.2786 884.404C94.2786 886.728 92.3946 888.612 90.0706 888.612C87.7466 888.612 85.8626 886.728 85.8626 884.404C85.8626 882.081 87.7466 880.197 90.0706 880.197Z" fill="#E6E6F1"/>
<path d="M68.0866 858.784C70.4093 858.784 72.2933 860.668 72.2933 862.992C72.2933 865.316 70.4093 867.2 68.0866 867.2C65.7613 867.2 63.8773 865.316 63.8773 862.992C63.8773 860.668 65.7613 858.784 68.0866 858.784Z" fill="#E6E6F1"/>
<path d="M90.0706 858.784C92.3946 858.784 94.2786 860.668 94.2786 862.992C94.2786 865.316 92.3946 867.2 90.0706 867.2C87.7466 867.2 85.8626 865.316 85.8626 862.992C85.8626 860.668 87.7466 858.784 90.0706 858.784Z" fill="#E6E6F1"/>
<path d="M443.79 14.0483C473.792 14.0483 498.116 38.3697 498.116 68.3723C498.116 98.375 473.792 122.696 443.79 122.696C413.788 122.696 389.466 98.375 389.466 68.3723C389.466 38.3697 413.788 14.0483 443.79 14.0483" fill="#F0F0F8"/>
<path d="M322.906 165.236C320.561 162.891 320.561 159.087 322.906 156.743L340.992 138.656C343.337 136.309 347.14 136.309 349.487 138.656C351.832 141.001 351.832 144.804 349.487 147.151L331.4 165.236C329.056 167.581 325.252 167.581 322.906 165.236" fill="#F0F0F8"/>
<path d="M322.906 138.656C325.252 136.309 329.056 136.309 331.4 138.656L349.487 156.743C351.832 159.087 351.832 162.891 349.487 165.236C347.14 167.581 343.337 167.581 340.992 165.236L322.906 147.151C320.561 144.804 320.561 141.001 322.906 138.656" fill="#F0F0F8"/>
<path d="M325.018 65.9515C327.342 65.9515 329.228 67.8342 329.228 70.1582C329.228 72.4822 327.342 74.3662 325.018 74.3662C322.695 74.3662 320.811 72.4822 320.811 70.1582C320.811 67.8342 322.695 65.9515 325.018 65.9515Z" fill="#EAEAF0"/>
<path d="M347.004 65.9515C349.328 65.9515 351.212 67.8342 351.212 70.1582C351.212 72.4822 349.328 74.3662 347.004 74.3662C344.678 74.3662 342.796 72.4822 342.796 70.1582C342.796 67.8342 344.678 65.9515 347.004 65.9515Z" fill="#EAEAF0"/>
<path d="M325.018 44.5387C327.342 44.5387 329.228 46.4227 329.228 48.7467C329.228 51.072 327.342 52.9561 325.018 52.9561C322.695 52.9561 320.811 51.072 320.811 48.7467C320.811 46.4227 322.695 44.5387 325.018 44.5387Z" fill="#EAEAF0"/>
<path d="M347.004 44.5387C349.328 44.5387 351.212 46.4227 351.212 48.7467C351.212 51.072 349.328 52.9561 347.004 52.9561C344.678 52.9561 342.796 51.072 342.796 48.7467C342.796 46.4227 344.678 44.5387 347.004 44.5387Z" fill="#EAEAF0"/>
<path d="M325.018 109.293C327.342 109.293 329.228 111.177 329.228 113.501C329.228 115.825 327.342 117.708 325.018 117.708C322.695 117.708 320.811 115.825 320.811 113.501C320.811 111.177 322.695 109.293 325.018 109.293Z" fill="#EAEAF0"/>
<path d="M347.004 109.293C349.328 109.293 351.212 111.177 351.212 113.501C351.212 115.825 349.328 117.708 347.004 117.708C344.678 117.708 342.796 115.825 342.796 113.501C342.796 111.177 344.678 109.293 347.004 109.293Z" fill="#EAEAF0"/>
<path d="M325.018 87.8809C327.342 87.8809 329.228 89.7649 329.228 92.0889C329.228 94.4129 327.342 96.2969 325.018 96.2969C322.695 96.2969 320.811 94.4129 320.811 92.0889C320.811 89.7649 322.695 87.8809 325.018 87.8809Z" fill="#EAEAF0"/>
<path d="M347.004 87.8809C349.328 87.8809 351.212 89.7649 351.212 92.0889C351.212 94.4129 349.328 96.2969 347.004 96.2969C344.678 96.2969 342.796 94.4129 342.796 92.0889C342.796 89.7649 344.678 87.8809 347.004 87.8809Z" fill="#EAEAF0"/>
<path d="M325.018 22.6904C327.342 22.6904 329.228 24.5758 329.228 26.8998C329.228 29.2225 327.342 31.1064 325.018 31.1064C322.695 31.1064 320.811 29.2225 320.811 26.8998C320.811 24.5758 322.695 22.6904 325.018 22.6904Z" fill="#EAEAF0"/>
<path d="M347.004 22.6904C349.328 22.6904 351.212 24.5758 351.212 26.8998C351.212 29.2225 349.328 31.1064 347.004 31.1064C344.678 31.1064 342.796 29.2225 342.796 26.8998C342.796 24.5758 344.678 22.6904 347.004 22.6904Z" fill="#EAEAF0"/>
<path d="M325.018 1.27962C327.342 1.27962 329.228 3.16363 329.228 5.48763C329.228 7.8103 327.342 9.69434 325.018 9.69434C322.695 9.69434 320.811 7.8103 320.811 5.48763C320.811 3.16363 322.695 1.27962 325.018 1.27962Z" fill="#EAEAF0"/>
<path d="M347.004 1.27962C349.328 1.27962 351.212 3.16363 351.212 5.48763C351.212 7.8103 349.328 9.69434 347.004 9.69434C344.678 9.69434 342.796 7.8103 342.796 5.48763C342.796 3.16363 344.678 1.27962 347.004 1.27962Z" fill="#EAEAF0"/>
<path d="M422.981 993.274L250.637 820.931" stroke="#F0F0F8" stroke-width="4" stroke-miterlimit="10" stroke-linecap="round"/>
<path d="M133.88 736.183C145.476 736.183 154.877 745.583 154.877 757.181C154.877 768.777 145.476 778.177 133.88 778.177C122.284 778.177 112.883 768.777 112.883 757.181C112.883 745.583 122.284 736.183 133.88 736.183Z" fill="#F0F0F8"/>
<path d="M389.687 849.726C404.749 849.726 416.96 861.936 416.96 876.999C416.96 892.061 404.749 904.271 389.687 904.271C374.624 904.271 362.415 892.061 362.415 876.999C362.415 861.936 374.624 849.726 389.687 849.726Z" fill="#F0F0F8"/>
<path d="M518.795 415.276C518.795 456.656 485.265 490.187 443.902 490.187C402.541 490.187 369.01 456.656 369.01 415.276C369.01 373.915 402.541 340.384 443.902 340.384C485.265 340.384 518.795 373.915 518.795 415.276ZM350.628 415.276C350.628 466.712 392.467 508.569 443.902 508.569C495.338 508.569 537.196 466.712 537.196 415.276C537.196 363.84 495.338 322 443.902 322C392.467 322 350.628 363.84 350.628 415.276Z" fill="#E7E7FA"/>
<path d="M-151.848 612.985L-116.885 578.023C-92.6427 553.78 -92.644 514.473 -116.889 490.233L-136.919 470.205C-141.147 465.977 -141.148 459.125 -136.92 454.897L-136.723 454.699C-132.327 450.304 -125.268 450.297 -120.911 454.655C-114.2 461.368 -67.796 507.773 -57.356 518.213C-35.2467 540.325 0.60528 540.327 22.7159 518.215C44.8279 496.104 44.8279 460.253 22.7159 438.143L-171.26 244.167L-165.441 201.457L-94.8267 272.071C-64.0054 302.892 -14.0334 302.892 16.7893 272.071C47.6119 241.248 47.6119 191.276 16.7893 160.455L-91.1867 52.4773C-95.8774 47.7867 -95.8774 40.1827 -91.1867 35.492C-86.4974 30.8027 -78.8921 30.8027 -74.2027 35.492L85.7013 195.395C103.121 212.816 131.367 212.816 148.788 195.395C166.209 177.973 166.209 149.729 148.788 132.307L38.0199 21.5401C32.9946 16.5148 32.9946 8.36669 38.0199 3.34269C43.0453 -1.68398 51.1933 -1.68398 56.2186 3.34269L58.1586 5.28136C94.9453 42.068 154.588 42.068 191.373 5.28135L273.992 -77.3373L-205.187 -77.3372" fill="#F4F4FD"/>
<path d="M239.636 -2.05768C252.569 -2.05768 263.055 8.4263 263.055 21.3596C263.055 34.2943 252.569 44.7783 239.636 44.7783C226.703 44.7783 216.219 34.2943 216.219 21.3596C216.219 8.42631 226.703 -2.05768 239.636 -2.05768Z" fill="#F0F0F8"/>
<path d="M67.7799 280.937C70.1039 280.937 71.9879 282.82 71.9879 285.144C71.9879 287.469 70.1039 289.354 67.7799 289.354C65.4559 289.354 63.5719 287.469 63.5719 285.144C63.5719 282.82 65.4559 280.937 67.7799 280.937Z" fill="#EAEAF0"/>
<path d="M89.7653 280.937C92.0893 280.937 93.9733 282.82 93.9733 285.144C93.9733 287.469 92.0893 289.354 89.7653 289.354C87.4413 289.354 85.5573 287.469 85.5573 285.144C85.5573 282.82 87.4413 280.937 89.7653 280.937Z" fill="#EAEAF0"/>
<path d="M67.7799 259.524C70.1039 259.524 71.9879 261.409 71.9879 263.733C71.9879 266.057 70.1039 267.941 67.7799 267.941C65.4559 267.941 63.5719 266.057 63.5719 263.733C63.5719 261.409 65.4559 259.524 67.7799 259.524Z" fill="#EAEAF0"/>
<path d="M89.7653 259.524C92.0893 259.524 93.9733 261.409 93.9733 263.733C93.9733 266.057 92.0893 267.941 89.7653 267.941C87.4413 267.941 85.5573 266.057 85.5573 263.733C85.5573 261.409 87.4413 259.524 89.7653 259.524Z" fill="#EAEAF0"/>
<path d="M92.7573 65.009C98.4973 65.009 103.149 69.661 103.149 75.401C103.149 81.1396 98.4973 85.793 92.7573 85.793C87.0173 85.793 82.3653 81.1396 82.3653 75.401C82.3653 69.661 87.0173 65.009 92.7573 65.009Z" fill="#F0F0F8"/>
<path d="M27.7585 84.1084L-141.817 -85.4676" stroke="#F0F0F8" stroke-width="4" stroke-miterlimit="10" stroke-linecap="round"/>
<path d="M10.2826 648.645L49.4693 687.832" stroke="#F0F0F8" stroke-width="4" stroke-miterlimit="10" stroke-linecap="round"/>
<path d="M101.15 363.87L88.31 350.24L71.12 366.45L53.93 350.24L41.09 363.87L57.47 379.31L41.09 394.76L53.93 408.38L71.12 392.18L88.31 408.38L101.15 394.76L84.77 379.31L101.15 363.87Z" fill="#E7E7FA"/>
<path d="M51.7 342L40 353.69L57.48 371.17L40 388.64L51.7 400.34L69.17 382.86L86.65 400.34L98.34 388.64L80.87 371.17L98.34 353.69L86.65 342L69.17 359.47L51.7 342Z" stroke="#DADAF0" stroke-miterlimit="10"/>
</g>
<defs>
<clipPath id="clip0_2546_5838">
<rect width="414" height="896" fill="white"/>
</clipPath>
</defs>
</svg>
